<svg xmlns="http://www.w3.org/2000/svg" viewBox="0 0 800 500">
  <defs>
    <linearGradient id="bgGrad" x1="0%" y1="0%" x2="100%" y2="100%">
      <stop offset="0%" style="stop-color:#0f172a"/>
      <stop offset="100%" style="stop-color:#1e1b4b"/>
    </linearGradient>
    <linearGradient id="accentGrad" x1="0%" y1="0%" x2="100%" y2="0%">
      <stop offset="0%" style="stop-color:#10b981"/>
      <stop offset="100%" style="stop-color:#06b6d4"/>
    </linearGradient>
  </defs>
  <rect width="800" height="500" fill="url(#bgGrad)"/>
  <rect x="40" y="30" width="720" height="44" rx="8" fill="#1e293b" stroke="#334155" stroke-width="1"/>
  <circle cx="60" cy="52" r="8" fill="#ef4444"/>
  <circle cx="84" cy="52" r="8" fill="#f59e0b"/>
  <circle cx="108" cy="52" r="8" fill="#10b981"/>
  <text x="400" y="56" font-family="system-ui" font-size="14" fill="#64748b" text-anchor="middle">Klat Downloader - Scheduler</text>
  <rect x="40" y="90" width="720" height="380" rx="12" fill="#1e293b" stroke="#334155" stroke-width="1"/>
  <rect x="60" y="110" width="680" height="60" rx="8" fill="#1e293b" stroke="#334155" stroke-width="1"/>
  <text x="90" y="140" font-family="system-ui" font-size="16" fill="#fff" font-weight="600">⏰ Smart Scheduler</text>
  <text x="90" y="160" font-family="system-ui" font-size="12" fill="#94a3b8">Automate downloads based on time, network, and battery conditions</text>
  <rect x="580" y="120" width="140" height="40" rx="6" fill="url(#accentGrad)"/>
  <text x="650" y="145" font-family="system-ui" font-size="13" fill="#fff" text-anchor="middle" dominant-baseline="middle">+ Add Rule</text>
  <rect x="60" y="190" width="680" height="260" rx="8" fill="#0f172a"/>
  <rect x="80" y="210" width="640" height="50" rx="8" fill="#1e293b" stroke="#10b981" stroke-width="1"/>
  <text x="110" y="235" font-family="system-ui" font-size="14" fill="#fff" font-weight="600">🌙 Night Owl (10 PM - 7 AM)</text>
  <text x="110" y="250" font-family="system-ui" font-size="11" fill="#94a3b8">Full speed • All categories • Battery: Any • WiFi only</text>
  <rect x="580" y="215" width="120" height="30" rx="4" fill="rgba(16,185,129,0.2)" stroke="#10b981" stroke-width="1"/>
  <text x="640" y="235" font-family="system-ui" font-size="12" fill="#10b981" text-anchor="middle" dominant-baseline="middle">✓ Active</text>
  <rect x="80" y="270" width="640" height="50" rx="8" fill="#1e293b" stroke="#f59e0b" stroke-width="1"/>
  <text x="110" y="295" font-family="system-ui" font-size="14" fill="#fff" font-weight="600">☀️ Daytime Limit (9 AM - 6 PM)</text>
  <text x="110" y="310" font-family="system-ui" font-size="11" fill="#94a3b8">Max 500 KB/s • Video category only • Battery > 50%</text>
  <rect x="580" y="275" width="120" height="30" rx="4" fill="rgba(245,158,11,0.2)" stroke="#f59e0b" stroke-width="1"/>
  <text x="640" y="295" font-family="system-ui" font-size="12" fill="#f59e0b" text-anchor="middle" dominant-baseline="middle">⏸ Paused</text>
  <rect x="80" y="330" width="640" height="50" rx="8" fill="#1e293b" stroke="#3b82f6" stroke-width="1"/>
  <text x="110" y="355" font-family="system-ui" font-size="14" fill="#fff" font-weight="600">🔋 Battery Saver (< 20%)</text>
  <text x="110" y="370" font-family="system-ui" font-size="11" fill="#94a3b8">Pause all • Resume at 80% • WiFi only • Show notification</text>
  <rect x="580" y="335" width="120" height="30" rx="4" fill="rgba(59,130,246,0.2)" stroke="#3b82f6" stroke-width="1"/>
  <text x="640" y="355" font-family="system-ui" font-size="12" fill="#3b82f6" text-anchor="middle" dominant-baseline="middle">✓ Active</text>
  <rect x="80" y="390" width="640" height="50" rx="8" fill="#1e293b" stroke="#6366f1" stroke-width="1"/>
  <text x="110" y="415" font-family="system-ui" font-size="14" fill="#fff" font-weight="600">📅 Weekend Unlimited (Sat-Sun)</text>
  <text x="110" y="430" font-family="system-ui" font-size="11" fill="#94a3b8">No limits • All networks • Auto-start queued</text>
  <rect x="580" y="395" width="120" height="30" rx="4" fill="rgba(99,102,241,0.2)" stroke="#6366f1" stroke-width="1"/>
  <text x="640" y="415" font-family="system-ui" font-size="12" fill="#6366f1" text-anchor="middle" dominant-baseline="middle">✓ Active</text>
</svg>