<svg xmlns="http://www.w3.org/2000/svg" viewBox="0 0 800 500">
  <defs>
    <linearGradient id="bgGrad" x1="0%" y1="0%" x2="100%" y2="100%">
      <stop offset="0%" style="stop-color:#0f172a"/>
      <stop offset="100%" style="stop-color:#1e1b4b"/>
    </linearGradient>
    <linearGradient id="accentGrad" x1="0%" y1="0%" x2="100%" y2="0%">
      <stop offset="0%" style="stop-color:#5c6bc0"/>
      <stop offset="100%" style="stop-color:#7c3aed"/>
    </linearGradient>
  </defs>
  <rect width="800" height="500" fill="url(#bgGrad)"/>
  <rect x="40" y="30" width="720" height="44" rx="8" fill="#1e293b" stroke="#334155" stroke-width="1"/>
  <circle cx="60" cy="52" r="8" fill="#ef4444"/>
  <circle cx="84" cy="52" r="8" fill="#f59e0b"/>
  <circle cx="108" cy="52" r="8" fill="#10b981"/>
  <text x="400" y="56" font-family="system-ui" font-size="14" fill="#64748b" text-anchor="middle">Klat AI - Image Generation</text>
  <rect x="40" y="90" width="720" height="380" rx="12" fill="#1e293b" stroke="#334155" stroke-width="1"/>
  <rect x="60" y="110" width="300" height="340" rx="12" fill="#0f172a"/>
  <text x="210" y="140" font-family="system-ui" font-size="14" fill="#e2e8f0" text-anchor="middle" font-weight="600">Generate Image</text>
  <rect x="80" y="155" width="260" height="100" rx="8" fill="#334155" stroke="#5c6bc0" stroke-width="1"/>
  <text x="100" y="185" font-family="system-ui" font-size="11" fill="#e2e8f0">A futuristic cyberpunk city</text>
  <text x="100" y="205" font-family="system-ui" font-size="11" fill="#e2e8f0">at sunset, neon lights reflecting</text>
  <text x="100" y="225" font-family="system-ui" font-size="11" fill="#e2e8f0">on wet streets, flying cars,</text>
  <text x="100" y="245" font-family="system-ui" font-size="11" fill="#e2e8f0">highly detailed, 8k, cinematic</text>
  <rect x="80" y="270" width="260" height="40" rx="20" fill="url(#accentGrad)"/>
  <text x="210" y="295" font-family="system-ui" font-size="13" fill="#fff" text-anchor="middle" dominant-baseline="middle" font-weight="600">Generate</text>
  <rect x="80" y="330" width="260" height="120" rx="8" fill="transparent" stroke="#334155" stroke-dasharray="5,5"/>
  <text x="210" y="370" font-family="system-ui" font-size="12" fill="#64748b" text-anchor="middle">Negative Prompt (optional)</text>
  <text x="210" y="395" font-family="system-ui" font-size="12" fill="#64748b" text-anchor="middle">blurry, low quality, distorted</text>
  <rect x="80" y="420" width="120" height="40" rx="8" fill="transparent" stroke="#5c6bc0" stroke-width="1"/>
  <text x="140" y="445" font-family="system-ui" font-size="12" fill="#5c6bc0" text-anchor="middle" dominant-baseline="middle">Style: Cinematic</text>
  <rect x="220" y="420" width="120" height="40" rx="8" fill="transparent" stroke="#5c6bc0" stroke-width="1"/>
  <text x="280" y="445" font-family="system-ui" font-size="12" fill="#5c6bc0" text-anchor="middle" dominant-baseline="middle">Ratio: 16:9</text>
  <rect x="380" y="110" width="380" height="340" rx="12" fill="#0f172a"/>
  <text x="570" y="140" font-family="system-ui" font-size="14" fill="#e2e8f0" text-anchor="middle" font-weight="600">Results</text>
  <rect x="400" y="155" width="170" height="150" rx="8" fill="#1e293b" stroke="#5c6bc0" stroke-width="1"/>
  <text x="485" y="250" font-family="system-ui" font-size="11" fill="#94a3b8" text-anchor="middle">Generated Image</text>
  <text x="485" y="270" font-family="system-ui" font-size="10" fill="#64748b" text-anchor="middle">1024x1024 • 2.3s</text>
  <rect x="590" y="155" width="170" height="150" rx="8" fill="#1e293b" stroke="#334155" stroke-width="1"/>
  <text x="675" y="250" font-family="system-ui" font-size="11" fill="#94a3b8" text-anchor="middle">Generated Image</text>
  <text x="675" y="270" font-family="system-ui" font-size="10" fill="#64748b" text-anchor="middle">1024x1024 • 2.1s</text>
  <rect x="400" y="320" width="170" height="150" rx="8" fill="#1e293b" stroke="#334155" stroke-width="1"/>
  <text x="485" y="415" font-family="system-ui" font-size="11" fill="#94a3b8" text-anchor="middle">Generated Image</text>
  <text x="485" y="435" font-family="system-ui" font-size="10" fill="#64748b" text-anchor="middle">1024x1024 • 2.4s</text>
  <rect x="590" y="320" width="170" height="150" rx="8" fill="#1e293b" stroke="#334155" stroke-width="1"/>
  <text x="675" y="415" font-family="system-ui" font-size="11" fill="#94a3b8" text-anchor="middle">Generated Image</text>
  <text x="675" y="435" font-family="system-ui" font-size="10" fill="#64748b" text-anchor="middle">1024x1024 • 2.2s</text>
</svg>