<svg xmlns="http://www.w3.org/2000/svg" viewBox="0 0 800 500">
  <defs>
    <linearGradient id="bgGrad" x1="0%" y1="0%" x2="100%" y2="100%">
      <stop offset="0%" style="stop-color:#0f172a"/>
      <stop offset="100%" style="stop-color:#1e1b4b"/>
    </linearGradient>
    <linearGradient id="accentGrad" x1="0%" y1="0%" x2="100%" y2="0%">
      <stop offset="0%" style="stop-color:#ef4444"/>
      <stop offset="100%" style="stop-color:#ec4899"/>
    </linearGradient>
  </defs>
  <rect width="800" height="500" fill="url(#bgGrad)"/>
  <rect x="40" y="30" width="720" height="44" rx="8" fill="#1e293b" stroke="#334155" stroke-width="1"/>
  <circle cx="60" cy="52" r="8" fill="#ef4444"/>
  <circle cx="84" cy="52" r="8" fill="#f59e0b"/>
  <circle cx="108" cy="52" r="8" fill="#10b981"/>
  <text x="400" y="56" font-family="system-ui" font-size="14" fill="#64748b" text-anchor="middle">Klat Tube - Subscriptions</text>
  <rect x="40" y="90" width="720" height="380" rx="12" fill="#1e293b" stroke="#334155" stroke-width="1"/>
  <rect x="60" y="110" width="240" height="340" rx="12" fill="#0f172a"/>
  <text x="180" y="135" font-family="system-ui" font-size="14" fill="#e2e8f0" text-anchor="middle" font-weight="600">📺 Subscriptions</text>
  <rect x="70" y="145" width="220" height="40" rx="8" fill="#ef4444"/>
  <text x="180" y="170" font-family="system-ui" font-size="12" fill="#fff" text-anchor="middle" dominant-baseline="middle">📋 All Channels (47)</text>
  <rect x="70" y="195" width="220" height="40" rx="8" fill="transparent"/>
  <text x="180" y="220" font-family="system-ui" font-size="12" fill="#94a3b8" text-anchor="middle">🎮 Gaming</text>
  <rect x="70" y="245" width="220" height="40" rx="8" fill="transparent"/>
  <text x="180" y="270" font-family="system-ui" font-size="12" fill="#94a3b8" text-anchor="middle">💻 Tech</text>
  <rect x="70" y="295" width="220" height="40" rx="8" fill="transparent"/>
  <text x="180" y="320" font-family="system-ui" font-size="12" fill="#94a3b8" text-anchor="middle">🎵 Music</text>
  <rect x="70" y="345" width="220" height="40" rx="8" fill="transparent"/>
  <text x="180" y="370" font-family="system-ui" font-size="12" fill="#94a3b8" text-anchor="middle">📚 Education</text>
  <rect x="70" y="395" width="220" height="40" rx="8" fill="#1e293b" stroke="#334155" stroke-width="1"/>
  <text x="180" y="420" font-family="system-ui" font-size="12" fill="#e2e8f0" text-anchor="middle">+ Add Channel</text>
  <rect x="320" y="110" width="420" height="340" rx="12" fill="#0f172a"/>
  <text x="530" y="135" font-family="system-ui" font-size="14" fill="#e2e8f0" text-anchor="middle" font-weight="600">Latest Videos</text>
  <rect x="330" y="145" width="400" height="70" rx="8" fill="#1e293b" stroke="#334155" stroke-width="1"/>
  <rect x="340" y="150" width="60" height="60" rx="6" fill="#334155"/>
  <text x="370" y="185" font-family="system-ui" font-size="20" fill="#fff" text-anchor="middle" dominant-baseline="middle">🎮</text>
  <text x="420" y="170" font-family="system-ui" font-size="12" fill="#e2e8f0" font-weight="600">Elden Ring DLC Review</text>
  <text x="420" y="190" font-family="system-ui" font-size="10" fill="#94a3b8">GameSpot • 2 hours ago</text>
  <text x="700" y="175" font-family="system-ui" font-size="11" fill="#ef4444" text-anchor="end">🔴 LIVE</text>
  <rect x="330" y="225" width="400" height="70" rx="8" fill="#1e293b" stroke="#334155" stroke-width="1"/>
  <rect x="340" y="230" width="60" height="60" rx="6" fill="#334155"/>
  <text x="370" y="265" font-family="system-ui" font-size="20" fill="#fff" text-anchor="middle" dominant-baseline="middle">💻</text>
  <text x="420" y="250" font-family="system-ui" font-size="12" fill="#e2e8f0" font-weight="600">Rust vs Go in 2024</text>
  <text x="420" y="270" font-family="system-ui" font-size="10" fill="#94a3b8">Fireship • 1 day ago • 45 min</text>
  <text x="700" y="255" font-family="system-ui" font-size="11" fill="#10b981" text-anchor="end">⬇ Downloaded</text>
  <rect x="330" y="305" width="400" height="70" rx="8" fill="#1e293b" stroke="#334155" stroke-width="1"/>
  <rect x="340" y="310" width="60" height="60" rx="6" fill="#334155"/>
  <text x="370" y="345" font-family="system-ui" font-size="20" fill="#fff" text-anchor="middle" dominant-baseline="middle">🎵</text>
  <text x="420" y="330" font-family="system-ui" font-size="12" fill="#e2e8f0" font-weight="600">Lo-fi Beats to Study</text>
  <text x="420" y="350" font-family="system-ui" font-size="10" fill="#94a3b8">Lofi Girl • Live now • 24/7</text>
  <text x="700" y="335" font-family="system-ui" font-size="11" fill="#ef4444" text-anchor="end">▶ Playing</text>
  <rect x="330" y="385" width="400" height="70" rx="8" fill="#1e293b" stroke="#334155" stroke-width="1"/>
  <rect x="340" y="390" width="60" height="60" rx="6" fill="#334155"/>
  <text x="370" y="425" font-family="system-ui" font-size="20" fill="#fff" text-anchor="middle" dominant-baseline="middle">📚</text>
  <text x="420" y="410" font-family="system-ui" font-size="12" fill="#e2e8f0" font-weight="600">Python Async Tutorial</text>
  <text x="420" y="430" font-family="system-ui" font-size="10" fill="#94a3b8">Corey Schafer • 3 days ago • 28 min</text>
  <text x="700" y="415" font-family="system-ui" font-size="11" fill="#f59e0b" text-anchor="end">⏳ Watch Later</text>
</svg>