<svg xmlns="http://www.w3.org/2000/svg" viewBox="0 0 800 500">
  <defs>
    <linearGradient id="bgGrad" x1="0%" y1="0%" x2="100%" y2="100%">
      <stop offset="0%" style="stop-color:#0f172a"/>
      <stop offset="100%" style="stop-color:#1e1b4b"/>
    </linearGradient>
    <linearGradient id="accentGrad" x1="0%" y1="0%" x2="100%" y2="0%">
      <stop offset="0%" style="stop-color:#10b981"/>
      <stop offset="100%" style="stop-color:#06b6d4"/>
    </linearGradient>
  </defs>
  <rect width="800" height="500" fill="url(#bgGrad)"/>
  <rect x="40" y="30" width="720" height="44" rx="8" fill="#1e293b" stroke="#334155" stroke-width="1"/>
  <circle cx="60" cy="52" r="8" fill="#ef4444"/>
  <circle cx="84" cy="52" r="8" fill="#f59e0b"/>
  <circle cx="108" cy="52" r="8" fill="#10b981"/>
  <text x="400" y="56" font-family="system-ui" font-size="14" fill="#64748b" text-anchor="middle">Klat Downloader - Browser Extension</text>
  <rect x="40" y="90" width="720" height="380" rx="12" fill="#1e293b" stroke="#334155" stroke-width="1"/>
  <rect x="60" y="110" width="300" height="340" rx="12" fill="#0f172a"/>
  <text x="210" y="135" font-family="system-ui" font-size="14" fill="#fff" text-anchor="middle" font-weight="600">Klat Downloader Extension</text>
  <rect x="70" y="150" width="280" height="50" rx="8" fill="#1e293b" stroke="#334155" stroke-width="1"/>
  <text x="100" y="180" font-family="system-ui" font-size="12" fill="#10b981">✓ Chrome / Edge / Brave</text>
  <text x="100" y="195" font-family="system-ui" font-size="11" fill="#94a3b8">v4.3.0 • Enabled</text>
  <rect x="70" y="210" width="280" height="50" rx="8" fill="#1e293b" stroke="#334155" stroke-width="1"/>
  <text x="100" y="240" font-family="system-ui" font-size="12" fill="#10b981">✓ Firefox</text>
  <text x="100" y="255" font-family="system-ui" font-size="11" fill="#94a3b8">v4.3.0 • Enabled</text>
  <rect x="70" y="270" width="280" height="50" rx="8" fill="#1e293b" stroke="#334155" stroke-width="1"/>
  <text x="100" y="300" font-family="system-ui" font-size="12" fill="#f59e0b">⚠ Safari</text>
  <text x="100" y="315" font-family="system-ui" font-size="11" fill="#94a3b8">Not supported</text>
  <rect x="70" y="330" width="280" height="50" rx="8" fill="#1e293b" stroke="#334155" stroke-width="1"/>
  <text x="100" y="360" font-family="system-ui" font-size="12" fill="#10b981">✓ Vivaldi / Opera</text>
  <text x="100" y="375" font-family="system-ui" font-size="11" fill="#94a3b8">v4.3.0 • Enabled</text>
  <rect x="380" y="110" width="400" height="340" rx="12" fill="#0f172a"/>
  <text x="580" y="135" font-family="system-ui" font-size="14" fill="#fff" text-anchor="middle" font-weight="600">Features</text>
  <rect x="400" y="155" width="360" height="60" rx="8" fill="#1e293b" stroke="#334155" stroke-width="1"/>
  <text x="420" y="185" font-family="system-ui" font-size="13" fill="#e2e8f0">✓ Right-click → "Download with Klat"</text>
  <text x="420" y="205" font-family="system-ui" font-size="11" fill="#94a3b8">Auto-detects video, audio, images, archives</text>
  <rect x="400" y="225" width="360" height="60" rx="8" fill="#1e293b" stroke="#334155" stroke-width="1"/>
  <text x="420" y="255" font-family="system-ui" font-size="13" fill="#e2e8f0">✓ Toolbar button with badge counter</text>
  <text x="420" y="275" font-family="system-ui" font-size="11" fill="#94a3b8">Shows active downloads • Click to open app</text>
  <rect x="400" y="295" width="360" height="60" rx="8" fill="#1e293b" stroke="#334155" stroke-width="1"/>
  <text x="420" y="325" font-family="system-ui" font-size="13" fill="#e2e8f0">✓ Auto-intercept browser downloads</text>
  <text x="420" y="345" font-family="system-ui" font-size="11" fill="#94a3b8">Redirect .exe, .zip, .iso, .mp4 to Klat</text>
  <rect x="400" y="365" width="360" height="60" rx="8" fill="#1e293b" stroke="#334155" stroke-width="1"/>
  <text x="420" y="395" font-family="system-ui" font-size="13" fill="#e2e8f0">✓ Video site integration (YouTube, Vimeo...)</text>
  <text x="420" y="415" font-family="system-ui" font-size="11" fill="#94a3b8">One-click quality selection • Subtitles</text>
</svg>