<svg xmlns="http://www.w3.org/2000/svg" viewBox="0 0 800 500">
  <defs>
    <linearGradient id="bgGrad" x1="0%" y1="0%" x2="100%" y2="100%">
      <stop offset="0%" style="stop-color:#667eea"/>
      <stop offset="100%" style="stop-color:#764ba2"/>
    </linearGradient>
    <linearGradient id="panelGrad" x1="0%" y1="0%" x2="0%" y2="100%">
      <stop offset="0%" style="stop-color:rgba(20,20,30,0.95)"/>
      <stop offset="100%" style="stop-color:rgba(30,30,40,0.98)"/>
    </linearGradient>
  </defs>
  <rect width="800" height="500" fill="url(#bgGrad)"/>
  <rect x="40" y="30" width="720" height="44" rx="8" fill="#1e293b" stroke="#334155" stroke-width="1"/>
  <circle cx="60" cy="52" r="8" fill="#ef4444"/>
  <circle cx="84" cy="52" r="8" fill="#f59e0b"/>
  <circle cx="108" cy="52" r="8" fill="#10b981"/>
  <text x="400" y="56" font-family="system-ui" font-size="14" fill="#64748b" text-anchor="middle">Klat OS - Applications Menu</text>
  <rect x="40" y="90" width="720" height="380" rx="12" fill="#000" fill-opacity="0.3" stroke="#fff" stroke-width="1" stroke-opacity="0.1"/>
  <rect x="50" y="100" width="300" height="360" rx="12" fill="url(#panelGrad)" stroke="rgba(255,255,255,0.1)" stroke-width="1"/>
  <text x="200" y="130" font-family="system-ui" font-size="16" fill="#fff" text-anchor="middle" font-weight="600">All Applications</text>
  <rect x="70" y="145" width="260" height="40" rx="8" fill="rgba(255,255,255,0.1)"/>
  <text x="90" y="170" font-family="system-ui" font-size="13" fill="#e2e8f0" dominant-baseline="middle">🔍  Search applications...</text>
  <rect x="70" y="200" width="260" height="50" rx="8" fill="rgba(102,126,234,0.2)" stroke="#667eea" stroke-width="1"/>
  <circle cx="100" cy="225" r="20" fill="#5c6bc0"/>
  <text x="100" y="230" font-family="system-ui" font-size="18" fill="#fff" text-anchor="middle" dominant-baseline="middle">🤖</text>
  <text x="140" y="215" font-family="system-ui" font-size="13" fill="#fff" font-weight="600">Klat AI</text>
  <text x="140" y="235" font-family="system-ui" font-size="11" fill="#94a3b8">Local AI Assistant</text>
  <rect x="70" y="260" width="260" height="50" rx="8" fill="rgba(255,255,255,0.05)"/>
  <circle cx="100" cy="285" r="20" fill="#3b82f6"/>
  <text x="100" y="290" font-family="system-ui" font-size="18" fill="#fff" text-anchor="middle" dominant-baseline="middle">🌐</text>
  <text x="140" y="275" font-family="system-ui" font-size="13" fill="#e2e8f0" font-weight="600">Klat Browser</text>
  <text x="140" y="295" font-family="system-ui" font-size="11" fill="#94a3b8">Privacy-First Browser</text>
  <rect x="70" y="320" width="260" height="50" rx="8" fill="rgba(255,255,255,0.05)"/>
  <circle cx="100" cy="345" r="20" fill="#10b981"/>
  <text x="100" y="350" font-family="system-ui" font-size="18" fill="#fff" text-anchor="middle" dominant-baseline="middle">📥</text>
  <text x="140" y="335" font-family="system-ui" font-size="13" fill="#e2e8f0" font-weight="600">Klat Downloader</text>
  <text x="140" y="355" font-family="system-ui" font-size="11" fill="#94a3b8">Download Manager</text>
  <rect x="70" y="380" width="260" height="50" rx="8" fill="rgba(255,255,255,0.05)"/>
  <circle cx="100" cy="405" r="20" fill="#f59e0b"/>
  <text x="100" y="410" font-family="system-ui" font-size="18" fill="#fff" text-anchor="middle" dominant-baseline="middle">📄</text>
  <text x="140" y="395" font-family="system-ui" font-size="13" fill="#e2e8f0" font-weight="600">Klat Office</text>
  <text x="140" y="415" font-family="system-ui" font-size="11" fill="#94a3b8">Complete Office Suite</text>
  <rect x="70" y="440" width="260" height="50" rx="8" fill="rgba(255,255,255,0.05)"/>
  <circle cx="100" cy="465" r="20" fill="#ef4444"/>
  <text x="100" y="470" font-family="system-ui" font-size="18" fill="#fff" text-anchor="middle" dominant-baseline="middle">▶</text>
  <text x="140" y="455" font-family="system-ui" font-size="13" fill="#e2e8f0" font-weight="600">Klat Tube</text>
  <text x="140" y="475" font-family="system-ui" font-size="11" fill="#94a3b8">Ad-Free YouTube</text>
  <rect x="380" y="100" width="380" height="360" rx="12" fill="url(#panelGrad)" stroke="rgba(255,255,255,0.1)" stroke-width="1"/>
  <text x="570" y="130" font-family="system-ui" font-size="16" fill="#fff" text-anchor="middle" font-weight="600">Categories</text>
  <rect x="400" y="145" width="340" height="50" rx="8" fill="rgba(255,255,255,0.1)"/>
  <text x="570" y="175" font-family="system-ui" font-size="14" fill="#fff" text-anchor="middle" font-weight="600">🌟 Favorites</text>
  <rect x="400" y="205" width="340" height="50" rx="8" fill="rgba(255,255,255,0.05)"/>
  <text x="570" y="235" font-family="system-ui" font-size="14" fill="#e2e8f0" text-anchor="middle">📦 Development</text>
  <rect x="400" y="265" width="340" height="50" rx="8" fill="rgba(255,255,255,0.05)"/>
  <text x="570" y="295" font-family="system-ui" font-size="14" fill="#e2e8f0" text-anchor="middle">🎨 Graphics</text>
  <rect x="400" y="325" width="340" height="50" rx="8" fill="rgba(255,255,255,0.05)"/>
  <text x="570" y="355" font-family="system-ui" font-size="14" fill="#e2e8f0" text-anchor="middle">🎵 Audio & Video</text>
  <rect x="400" y="385" width="340" height="50" rx="8" fill="rgba(255,255,255,0.05)"/>
  <text x="570" y="415" font-family="system-ui" font-size="14" fill="#e2e8f0" text-anchor="middle">🌐 Internet</text>
  <rect x="400" y="445" width="340" height="50" rx="8" fill="rgba(255,255,255,0.05)"/>
  <text x="570" y="475" font-family="system-ui" font-size="14" fill="#e2e8f0" text-anchor="middle">⚙ System Tools</text>
</svg>