<svg xmlns="http://www.w3.org/2000/svg" viewBox="0 0 800 500">
  <defs>
    <linearGradient id="bgGrad" x1="0%" y1="0%" x2="100%" y2="100%">
      <stop offset="0%" style="stop-color:#0f172a"/>
      <stop offset="100%" style="stop-color:#1e1b4b"/>
    </linearGradient>
    <linearGradient id="accentGrad" x1="0%" y1="0%" x2="100%" y2="0%">
      <stop offset="0%" style="stop-color:#8b5cf6"/>
      <stop offset="100%" style="stop-color:#a78bfa"/>
    </linearGradient>
  </defs>
  <rect width="800" height="500" fill="url(#bgGrad)"/>
  <rect x="40" y="30" width="720" height="44" rx="8" fill="#1e293b" stroke="#334155" stroke-width="1"/>
  <circle cx="60" cy="52" r="8" fill="#ef4444"/>
  <circle cx="84" cy="52" r="8" fill="#f59e0b"/>
  <circle cx="108" cy="52" r="8" fill="#10b981"/>
  <text x="400" y="56" font-family="system-ui" font-size="14" fill="#64748b" text-anchor="middle">Klat Downloader - BitTorrent</text>
  <rect x="40" y="90" width="720" height="380" rx="12" fill="#1e293b" stroke="#334155" stroke-width="1"/>
  <rect x="60" y="110" width="680" height="50" rx="8" fill="#1e293b" stroke="#334155" stroke-width="1"/>
  <text x="90" y="140" font-family="system-ui" font-size="16" fill="#fff" font-weight="600">🧲 BitTorrent Client</text>
  <text x="90" y="160" font-family="system-ui" font-size="12" fill="#94a3b8">Full-featured torrent support with DHT, PEX, encryption, and selective download</text>
  <rect x="580" y="120" width="140" height="40" rx="6" fill="url(#accentGrad)"/>
  <text x="650" y="145" font-family="system-ui" font-size="13" fill="#fff" text-anchor="middle" dominant-baseline="middle">+ Add Torrent</text>
  <rect x="60" y="180" width="680" height="280" rx="8" fill="#0f172a"/>
  <rect x="80" y="200" width="640" height="80" rx="8" fill="#1e293b" stroke="#8b5cf6" stroke-width="1"/>
  <rect x="100" y="215" width="50" height="50" rx="8" fill="#334155"/>
  <text x="125" y="245" font-family="system-ui" font-size="24" fill="#fff" text-anchor="middle" dominant-baseline="middle">📦</text>
  <text x="170" y="230" font-family="system-ui" font-size="13" fill="#e2e8f0" font-weight="600">Ubuntu 24.04 Desktop ISO</text>
  <text x="170" y="250" font-family="system-ui" font-size="11" fill="#94a3b8">magnet:?xt=urn:btih:abc123... • 4.8 GB • 12 files</text>
  <rect x="400" y="220" width="150" height="20" rx="4" fill="#334155"/>
  <rect x="400" y="220" width="101" height="20" rx="4" fill="#8b5cf6"/>
  <text x="475" y="235" font-family="system-ui" font-size="11" fill="#fff" text-anchor="middle" dominant-baseline="middle">67% • 2.4 MB/s</text>
  <rect x="570" y="220" width="150" height="20" rx="4" fill="#334155"/>
  <text x="645" y="235" font-family="system-ui" font-size="11" fill="#94a3b8" text-anchor="middle">3.2 GB / 4.8 GB</text>
  <rect x="700" y="220" width="20" height="20" rx="4" fill="#8b5cf6"/>
  <text x="710" y="235" font-family="system-ui" font-size="12" fill="#fff" text-anchor="middle" dominant-baseline="middle">⏸</text>
  <rect x="80" y="295" width="640" height="80" rx="8" fill="#1e293b" stroke="#3b82f6" stroke-width="1"/>
  <rect x="100" y="310" width="40" height="40" rx="8" fill="#334155"/>
  <text x="120" y="335" font-family="system-ui" font-size="18" fill="#fff" text-anchor="middle" dominant-baseline="middle">🎬</text>
  <text x="160" y="325" font-family="system-ui" font-size="13" fill="#e2e8f0" font-weight="600">Sample Video.mp4</text>
  <text x="160" y="345" font-family="system-ui" font-size="11" fill="#94a3b8">1.2 GB • Video file • Sequential: ON</text>
  <rect x="380" y="315" width="150" height="20" rx="4" fill="#334155"/>
  <rect x="380" y="315" width="150" height="20" rx="4" fill="#10b981"/>
  <text x="455" y="330" font-family="system-ui" font-size="11" fill="#fff" text-anchor="middle" dominant-baseline="middle">100% ✓ Done</text>
  <rect x="550" y="315" width="150" height="20" rx="4" fill="#334155"/>
  <text x="625" y="330" font-family="system-ui" font-size="11" fill="#94a3b8" text-anchor="middle">1.2 GB / 1.2 GB</text>
  <rect x="700" y="315" width="20" height="20" rx="4" fill="#10b981"/>
  <text x="710" y="330" font-family="system-ui" font-size="12" fill="#fff" text-anchor="middle" dominant-baseline="middle">📁</text>
  <rect x="80" y="390" width="640" height="80" rx="8" fill="#1e293b" stroke="#334155" stroke-width="1"/>
  <text x="110" y="415" font-family="system-ui" font-size="13" fill="#e2e8f0" font-weight="600">Files in torrent (select to download):</text>
  <rect x="110" y="435" width="100" height="24" rx="4" fill="#8b5cf6" stroke="#8b5cf6" stroke-width="1"/>
  <text x="160" y="450" font-family="system-ui" font-size="11" fill="#fff" text-anchor="middle" dominant-baseline="middle">📁 VIDEO_TS</text>
  <rect x="220" y="435" width="100" height="24" rx="4" fill="transparent" stroke="#334155" stroke-width="1"/>
  <text x="270" y="450" font-family="system-ui" font-size="11" fill="#94a3b8" text-anchor="middle" dominant-baseline="middle">📄 README.txt</text>
  <rect x="330" y="435" width="100" height="24" rx="4" fill="transparent" stroke="#334155" stroke-width="1"/>
  <text x="380" y="450" font-family="system-ui" font-size="11" fill="#94a3b8" text-anchor="middle" dominant-baseline="middle">🖼️ cover.jpg</text>
  <rect x="440" y="435" width="100" height="24" rx="4" fill="transparent" stroke="#334155" stroke-width="1"/>
  <text x="490" y="450" font-family="system-ui" font-size="11" fill="#94a3b8" text-anchor="middle" dominant-baseline="middle">📄 subtitle.srt</text>
</svg>