<svg xmlns="http://www.w3.org/2000/svg" viewBox="0 0 800 500">
  <defs>
    <linearGradient id="bgGrad" x1="0%" y1="0%" x2="100%" y2="100%">
      <stop offset="0%" style="stop-color:#0f172a"/>
      <stop offset="100%" style="stop-color:#1e1b4b"/>
    </linearGradient>
    <linearGradient id="accentGrad" x1="0%" y1="0%" x2="100%" y2="0%">
      <stop offset="0%" style="stop-color:#ef4444"/>
      <stop offset="100%" style="stop-color:#ec4899"/>
    </linearGradient>
  </defs>
  <rect width="800" height="500" fill="url(#bgGrad)"/>
  <rect x="40" y="30" width="720" height="44" rx="8" fill="#1e293b" stroke="#334155" stroke-width="1"/>
  <circle cx="60" cy="52" r="8" fill="#ef4444"/>
  <circle cx="84" cy="52" r="8" fill="#f59e0b"/>
  <circle cx="108" cy="52" r="8" fill="#10b981"/>
  <text x="400" y="56" font-family="system-ui" font-size="14" fill="#64748b" text-anchor="middle">Klat Tube - Download Manager</text>
  <rect x="40" y="90" width="720" height="380" rx="12" fill="#1e293b" stroke="#334155" stroke-width="1"/>
  <rect x="60" y="110" width="680" height="50" rx="8" fill="#0f172a"/>
  <rect x="70" y="120" width="300" height="30" rx="6" fill="#334155"/>
  <text x="90" y="140" font-family="system-ui" font-size="12" fill="#e2e8f0" dominant-baseline="middle">🔍  Paste URL or search...</text>
  <rect x="400" y="120" width="120" height="30" rx="6" fill="#ef4444"/>
  <text x="460" y="140" font-family="system-ui" font-size="13" fill="#fff" text-anchor="middle" dominant-baseline="middle">Paste</text>
  <rect x="540" y="120" width="120" height="30" rx="6" fill="transparent" stroke="#334155" stroke-width="1"/>
  <text x="600" y="140" font-family="system-ui" font-size="13" fill="#94a3b8" text-anchor="middle" dominant-baseline="middle">Add Multiple</text>
  <rect x="680" y="120" width="60" height="30" rx="6" fill="transparent" stroke="#334155" stroke-width="1"/>
  <text x="710" y="140" font-family="system-ui" font-size="13" fill="#94a3b8" text-anchor="middle" dominant-baseline="middle">⚙</text>
  <rect x="60" y="180" width="680" height="270" rx="8" fill="#0f172a"/>
  <rect x="80" y="200" width="640" height="70" rx="8" fill="#1e293b" stroke="#ef4444" stroke-width="1"/>
  <rect x="100" y="215" width="40" height="40" rx="8" fill="#334155"/>
  <text x="120" y="240" font-family="system-ui" font-size="18" fill="#fff" text-anchor="middle" dominant-baseline="middle">🎬</text>
  <text x="160" y="230" font-family="system-ui" font-size="13" fill="#e2e8f0" font-weight="600">How to Build a Custom Mechanical Keyboard</text>
  <text x="160" y="250" font-family="system-ui" font-size="11" fill="#94a3b8">TechWithTim • 2.4M views • 15:32</text>
  <rect x="380" y="215" width="150" height="20" rx="4" fill="#334155"/>
  <rect x="380" y="215" width="105" height="20" rx="4" fill="#10b981"/>
  <text x="455" y="230" font-family="system-ui" font-size="11" fill="#fff" text-anchor="middle" dominant-baseline="middle">67% • 2.4 MB/s</text>
  <rect x="550" y="215" width="150" height="20" rx="4" fill="#334155"/>
  <text x="625" y="230" font-family="system-ui" font-size="11" fill="#94a3b8" text-anchor="middle">3.2 GB / 4.8 GB</text>
  <rect x="700" y="215" width="20" height="20" rx="4" fill="#ef4444"/>
  <text x="710" y="230" font-family="system-ui" font-size="12" fill="#fff" text-anchor="middle" dominant-baseline="middle">⏸</text>
  <rect x="80" y="285" width="640" height="70" rx="8" fill="#1e293b" stroke="#3b82f6" stroke-width="1"/>
  <rect x="100" y="300" width="40" height="40" rx="8" fill="#334155"/>
  <text x="120" y="325" font-family="system-ui" font-size="18" fill="#fff" text-anchor="middle" dominant-baseline="middle">📦</text>
  <text x="160" y="315" font-family="system-ui" font-size="13" fill="#e2e8f0" font-weight="600">KlatOffice-Setup-x64.msi</text>
  <text x="160" y="335" font-family="system-ui" font-size="11" fill="#94a3b8">github.com/klatasia/...</text>
  <rect x="380" y="300" width="150" height="20" rx="4" fill="#334155"/>
  <rect x="380" y="300" width="35" height="20" rx="4" fill="#3b82f6"/>
  <text x="455" y="315" font-family="system-ui" font-size="11" fill="#fff" text-anchor="middle" dominant-baseline="middle">23% • 1.8 MB/s</text>
  <rect x="550" y="300" width="150" height="20" rx="4" fill="#334155"/>
  <text x="625" y="315" font-family="system-ui" font-size="11" fill="#94a3b8" text-anchor="middle">72 MB / 312 MB</text>
  <rect x="700" y="300" width="20" height="20" rx="4" fill="#3b82f6"/>
  <text x="710" y="315" font-family="system-ui" font-size="12" fill="#fff" text-anchor="middle" dominant-baseline="middle">⏸</text>
  <rect x="80" y="370" width="640" height="70" rx="8" fill="#1e293b" stroke="#10b981" stroke-width="1" stroke-dasharray="5,5"/>
  <rect x="100" y="385" width="40" height="40" rx="8" fill="#334155"/>
  <text x="120" y="410" font-family="system-ui" font-size="18" fill="#fff" text-anchor="middle" dominant-baseline="middle">🖼️</text>
  <text x="160" y="400" font-family="system-ui" font-size="13" fill="#e2e8f0" font-weight="600">wallpaper-4k-collection.zip</text>
  <text x="160" y="420" font-family="system-ui" font-size="11" fill="#94a3b8">unsplash.com/...</text>
  <rect x="380" y="385" width="150" height="20" rx="4" fill="#10b981"/>
  <text x="455" y="400" font-family="system-ui" font-size="11" fill="#fff" text-anchor="middle" dominant-baseline="middle">100% ✓ Completed</text>
  <rect x="550" y="385" width="150" height="20" rx="4" fill="#334155"/>
  <text x="625" y="400" font-family="system-ui" font-size="11" fill="#94a3b8" text-anchor="middle">145 MB ✓</text>
  <rect x="700" y="385" width="20" height="20" rx="4" fill="#10b981"/>
  <text x="710" y="400" font-family="system-ui" font-size="12" fill="#fff" text-anchor="middle" dominant-baseline="middle">📁</text>
</svg>