<svg xmlns="http://www.w3.org/2000/svg" viewBox="0 0 800 500">
  <defs>
    <linearGradient id="bgGrad" x1="0%" y1="0%" x2="100%" y2="100%">
      <stop offset="0%" style="stop-color:#0f172a"/>
      <stop offset="100%" style="stop-color:#1e1b4b"/>
    </linearGradient>
    <linearGradient id="accentGrad" x1="0%" y1="0%" x2="100%" y2="0%">
      <stop offset="0%" style="stop-color:#5c6bc0"/>
      <stop offset="100%" style="stop-color:#7c3aed"/>
    </linearGradient>
  </defs>
  <rect width="800" height="500" fill="url(#bgGrad)"/>
  <rect x="40" y="30" width="720" height="44" rx="8" fill="#1e293b" stroke="#334155" stroke-width="1"/>
  <circle cx="60" cy="52" r="8" fill="#ef4444"/>
  <circle cx="84" cy="52" r="8" fill="#f59e0b"/>
  <circle cx="108" cy="52" r="8" fill="#10b981"/>
  <text x="400" y="56" font-family="system-ui" font-size="14" fill="#64748b" text-anchor="middle">Klat AI - Chat Interface</text>
  <rect x="40" y="90" width="240" height="380" rx="12" fill="#1e293b" stroke="#334155" stroke-width="1"/>
  <rect x="50" y="100" width="220" height="40" rx="8" fill="#0f172a"/>
  <text x="160" y="125" font-family="system-ui" font-size="13" fill="#5c6bc0" text-anchor="middle" font-weight="600">Chats</text>
  <rect x="50" y="150" width="220" height="50" rx="8" fill="#334155"/>
  <circle cx="80" cy="175" r="16" fill="#5c6bc0"/>
  <text x="110" y="175" font-family="system-ui" font-size="12" fill="#fff" dominant-baseline="middle" font-weight="500">New Chat</text>
  <rect x="50" y="210" width="220" height="50" rx="8" fill="transparent"/>
  <circle cx="80" cy="235" r="16" fill="#334155"/>
  <text x="110" y="235" font-family="system-ui" font-size="12" fill="#94a3b8" dominant-baseline="middle">Recent</text>
  <rect x="50" y="270" width="220" height="50" rx="8" fill="transparent"/>
  <circle cx="80" cy="295" r="16" fill="#334155"/>
  <text x="110" y="295" font-family="system-ui" font-size="12" fill="#94a3b8" dominant-baseline="middle">Prompts</text>
  <rect x="50" y="330" width="220" height="50" rx="8" fill="transparent"/>
  <circle cx="80" cy="355" r="16" fill="#334155"/>
  <text x="110" y="355" font-family="system-ui" font-size="12" fill="#94a3b8" dominant-baseline="middle">Models</text>
  <rect x="50" y="390" width="220" height="50" rx="8" fill="transparent"/>
  <circle cx="80" cy="415" r="16" fill="#334155"/>
  <text x="110" y="415" font-family="system-ui" font-size="12" fill="#94a3b8" dominant-baseline="middle">Settings</text>
  <rect x="300" y="90" width="460" height="380" rx="12" fill="#1e293b" stroke="#334155" stroke-width="1"/>
  <rect x="310" y="100" width="440" height="40" rx="8" fill="#0f172a"/>
  <text x="530" y="125" font-family="system-ui" font-size="13" fill="#e2e8f0" text-anchor="middle" font-weight="500">Klat AI Assistant</text>
  <rect x="320" y="160" width="420" height="120" rx="12" fill="#0f172a"/>
  <circle cx="350" cy="220" r="30" fill="#5c6bc0"/>
  <text x="350" y="225" font-family="system-ui" font-size="24" fill="#fff" text-anchor="middle" dominant-baseline="middle">🤖</text>
  <text x="400" y="205" font-family="system-ui" font-size="14" fill="#e2e8f0">How can I help you today?</text>
  <text x="400" y="225" font-family="system-ui" font-size="12" fill="#64748b">Code • Images • Questions • Analysis</text>
  <rect x="320" y="300" width="420" height="140" rx="12" fill="#0f172a" stroke="#334155" stroke-width="1"/>
  <text x="340" y="325" font-family="system-ui" font-size="12" fill="#94a3b8">💬</text>
  <text x="370" y="325" font-family="system-ui" font-size="13" fill="#e2e8f0" font-weight="500">Write a Python function for API retry logic</text>
  <rect x="340" y="350" width="380" height="70" rx="8" fill="#1e293b"/>
  <text x="350" y="375" font-family="monospace" font-size="11" fill="#a5f3fc">import requests; from time import sleep</text>
  <text x="350" y="390" font-family="monospace" font-size="11" fill="#a5f3fc">def fetch_with_retry(url, max_retries=3):</text>
  <text x="350" y="405" font-family="monospace" font-size="11" fill="#a5f3fc">    for i in range(max_retries):</text>
  <rect x="320" y="460" width="420" height="50" rx="12" fill="transparent"/>
  <rect x="340" y="465" width="300" height="40" rx="20" fill="#334155" stroke="#5c6bc0" stroke-width="1"/>
  <text x="490" y="490" font-family="system-ui" font-size="13" fill="#e2e8f0" text-anchor="middle" dominant-baseline="middle">Ask anything...</text>
  <rect x="660" y="465" width="80" height="40" rx="20" fill="url(#accentGrad)"/>
  <text x="700" y="490" font-family="system-ui" font-size="13" fill="#fff" text-anchor="middle" dominant-baseline="middle">Send</text>
</svg>