<svg xmlns="http://www.w3.org/2000/svg" viewBox="0 0 800 500">
  <defs>
    <linearGradient id="bgGrad" x1="0%" y1="0%" x2="100%" y2="100%">
      <stop offset="0%" style="stop-color:#667eea"/>
      <stop offset="100%" style="stop-color:#764ba2"/>
    </linearGradient>
    <linearGradient id="panelGrad" x1="0%" y1="0%" x2="0%" y2="100%">
      <stop offset="0%" style="stop-color:rgba(20,20,30,0.95)"/>
      <stop offset="100%" style="stop-color:rgba(30,30,40,0.98)"/>
    </linearGradient>
  </defs>
  <rect width="800" height="500" fill="url(#bgGrad)"/>
  <rect x="40" y="30" width="720" height="44" rx="8" fill="#1e293b" stroke="#334155" stroke-width="1"/>
  <circle cx="60" cy="52" r="8" fill="#ef4444"/>
  <circle cx="84" cy="52" r="8" fill="#f59e0b"/>
  <circle cx="108" cy="52" r="8" fill="#10b981"/>
  <text x="400" y="56" font-family="system-ui" font-size="14" fill="#64748b" text-anchor="middle">Klat OS - Software Center</text>
  <rect x="40" y="90" width="720" height="380" rx="12" fill="#000" fill-opacity="0.3" stroke="#fff" stroke-width="1" stroke-opacity="0.1"/>
  <rect x="50" y="100" width="700" height="360" rx="12" fill="url(#panelGrad)" stroke="rgba(255,255,255,0.1)" stroke-width="1"/>
  <rect x="70" y="115" width="660" height="50" rx="8" fill="rgba(255,255,255,0.1)"/>
  <text x="100" y="145" font-family="system-ui" font-size="14" fill="#e2e8f0" dominant-baseline="middle">🔍  Search for apps: VS Code, Firefox, Steam, Discord, Blender...</text>
  <rect x="650" y="120" width="150" height="40" rx="8" fill="#667eea"/>
  <text x="725" y="145" font-family="system-ui" font-size="14" fill="#fff" text-anchor="middle" dominant-baseline="middle">🔍 Search</text>
  <rect x="70" y="180" width="200" height="260" rx="8" fill="rgba(255,255,255,0.05)"/>
  <text x="170" y="205" font-family="system-ui" font-size="14" fill="#fff" text-anchor="middle" font-weight="600">Categories</text>
  <rect x="80" y="220" width="180" height="40" rx="6" fill="rgba(102,126,234,0.2)" stroke="#667eea" stroke-width="1"/>
  <text x="170" y="245" font-family="system-ui" font-size="12" fill="#fff" text-anchor="middle">🌟 Featured</text>
  <rect x="80" y="270" width="180" height="40" rx="6" fill="rgba(255,255,255,0.05)"/>
  <text x="170" y="295" font-family="system-ui" font-size="12" fill="#e2e8f0" text-anchor="middle">💻 Development</text>
  <rect x="80" y="320" width="180" height="40" rx="6" fill="rgba(255,255,255,0.05)"/>
  <text x="170" y="345" font-family="system-ui" font-size="12" fill="#e2e8f0" text-anchor="middle">🌐 Internet</text>
  <rect x="80" y="370" width="180" height="40" rx="6" fill="rgba(255,255,255,0.05)"/>
  <text x="170" y="395" font-family="system-ui" font-size="12" fill="#e2e8f0" text-anchor="middle">🎮 Games</text>
  <rect x="80" y="420" width="180" height="40" rx="6" fill="rgba(255,255,255,0.05)"/>
  <text x="170" y="445" font-family="system-ui" font-size="12" fill="#e2e8f0" text-anchor="middle">📦 Utilities</text>
  <rect x="300" y="180" width="420" height="260" rx="8" fill="rgba(255,255,255,0.03)"/>
  <rect x="320" y="195" width="380" height="110" rx="8" fill="rgba(255,255,255,0.05)" stroke="rgba(255,255,255,0.1)" stroke-width="1"/>
  <rect x="330" y="205" width="90" height="90" rx="8" fill="#007acc"/>
  <text x="375" y="250" font-family="system-ui" font-size="40" fill="#fff" text-anchor="middle" dominant-baseline="middle">📝</text>
  <text x="450" y="230" font-family="system-ui" font-size="16" fill="#fff" font-weight="600">Visual Studio Code</text>
  <text x="450" y="255" font-family="system-ui" font-size="12" fill="#94a3b8">Code Editor • Microsoft • Flatpak</text>
  <text x="450" y="275" font-family="system-ui" font-size="11" fill="#10b981">⭐ 4.8 • 5M+ installs • 95 MB</text>
  <rect x="650" y="220" width="120" height="40" rx="6" fill="#667eea"/>
  <text x="710" y="245" font-family="system-ui" font-size="13" fill="#fff" text-anchor="middle" dominant-baseline="middle">Install</text>
  <rect x="320" y="315" width="380" height="110" rx="8" fill="rgba(255,255,255,0.05)" stroke="rgba(255,255,255,0.1)" stroke-width="1"/>
  <rect x="330" y="325" width="90" height="90" rx="8" fill="#ff6b35"/>
  <text x="375" y="370" font-family="system-ui" font-size="40" fill="#fff" text-anchor="middle" dominant-baseline="middle">🦊</text>
  <text x="450" y="350" font-family="system-ui" font-size="16" fill="#fff" font-weight="600">Firefox Browser</text>
  <text x="450" y="375" font-family="system-ui" font-size="12" fill="#94a3b8">Web Browser • Mozilla • Flatpak</text>
  <text x="450" y="395" font-family="system-ui" font-size="11" fill="#10b981">⭐ 4.7 • 10M+ installs • 120 MB</text>
  <rect x="650" y="340" width="120" height="40" rx="6" fill="#667eea"/>
  <text x="710" y="365" font-family="system-ui" font-size="13" fill="#fff" text-anchor="middle" dominant-baseline="middle">Install</text>
</svg>