<svg xmlns="http://www.w3.org/2000/svg" viewBox="0 0 800 500">
  <defs>
    <linearGradient id="bgGrad" x1="0%" y1="0%" x2="100%" y2="100%">
      <stop offset="0%" style="stop-color:#0f172a"/>
      <stop offset="100%" style="stop-color:#1e1b4b"/>
    </linearGradient>
  </defs>
  <rect width="800" height="500" fill="url(#bgGrad)"/>
  <rect x="40" y="30" width="720" height="44" rx="8" fill="#1e293b" stroke="#334155" stroke-width="1"/>
  <circle cx="60" cy="52" r="8" fill="#ef4444"/>
  <circle cx="84" cy="52" r="8" fill="#f59e0b"/>
  <circle cx="108" cy="52" r="8" fill="#10b981"/>
  <text x="400" y="56" font-family="system-ui" font-size="14" fill="#64748b" text-anchor="middle">Klat Downloader - Settings</text>
  <rect x="40" y="90" width="720" height="380" rx="12" fill="#1e293b" stroke="#334155" stroke-width="1"/>
  <rect x="60" y="110" width="200" height="340" rx="12" fill="#0f172a"/>
  <text x="160" y="135" font-family="system-ui" font-size="13" fill="#e2e8f0" text-anchor="middle" font-weight="600">Categories</text>
  <rect x="70" y="145" width="180" height="40" rx="8" fill="#10b981"/>
  <text x="160" y="170" font-family="system-ui" font-size="12" fill="#fff" text-anchor="middle" dominant-baseline="middle">🌐 General</text>
  <rect x="70" y="195" width="180" height="40" rx="8" fill="transparent"/>
  <text x="160" y="220" font-family="system-ui" font-size="12" fill="#94a3b8" text-anchor="middle">🔗 Connection</text>
  <rect x="70" y="245" width="180" height="40" rx="8" fill="transparent"/>
  <text x="160" y="270" font-family="system-ui" font-size="12" fill="#94a3b8" text-anchor="middle">⚡ Speed Limits</text>
  <rect x="70" y="295" width="180" height="40" rx="8" fill="transparent"/>
  <text x="160" y="320" font-family="system-ui" font-size="12" fill="#94a3b8" text-anchor="middle">📁 Folders</text>
  <rect x="70" y="345" width="180" height="40" rx="8" fill="transparent"/>
  <text x="160" y="370" font-family="system-ui" font-size="12" fill="#94a3b8" text-anchor="middle">🔧 Advanced</text>
  <rect x="70" y="395" width="180" height="40" rx="8" fill="transparent"/>
  <text x="160" y="420" font-family="system-ui" font-size="12" fill="#94a3b8" text-anchor="middle">🛡️ Virus Scan</text>
  <rect x="280" y="110" width="460" height="340" rx="12" fill="#0f172a"/>
  <text x="510" y="135" font-family="system-ui" font-size="14" fill="#e2e8f0" text-anchor="middle" font-weight="600">General Settings</text>
  <rect x="300" y="150" width="420" height="60" rx="8" fill="#1e293b" stroke="#334155" stroke-width="1"/>
  <text x="320" y="180" font-family="system-ui" font-size="12" fill="#e2e8f0">Default download folder</text>
  <text x="320" y="200" font-family="system-ui" font-size="11" fill="#94a3b8">/home/user/Downloads/KlatDownloader</text>
  <rect x="300" y="220" width="420" height="60" rx="8" fill="#1e293b" stroke="#334155" stroke-width="1"/>
  <text x="320" y="250" font-family="system-ui" font-size="12" fill="#e2e8f0">Max concurrent downloads</text>
  <rect x="500" y="230" width="100" height="36" rx="6" fill="#334155" stroke="#10b981" stroke-width="1"/>
  <text x="550" y="255" font-family="system-ui" font-size="13" fill="#fff" text-anchor="middle" dominant-baseline="middle">8</text>
  <rect x="300" y="290" width="420" height="60" rx="8" fill="#1e293b" stroke="#334155" stroke-width="1"/>
  <text x="320" y="320" font-family="system-ui" font-size="12" fill="#e2e8f0">Auto-start downloads on add</text>
  <rect x="680" y="300" width="50" height="30" rx="15" fill="#10b981"/>
  <circle cx="715" cy="315" r="12" fill="#fff"/>
  <rect x="300" y="360" width="420" height="60" rx="8" fill="#1e293b" stroke="#334155" stroke-width="1"/>
  <text x="320" y="390" font-family="system-ui" font-size="12" fill="#e2e8f0">Minimize to system tray</text>
  <rect x="680" y="370" width="50" height="30" rx="15" fill="#10b981"/>
  <circle cx="715" cy="385" r="12" fill="#fff"/>
  <rect x="300" y="430" width="420" height="60" rx="8" fill="#1e293b" stroke="#334155" stroke-width="1"/>
  <text x="320" y="460" font-family="system-ui" font-size="12" fill="#e2e8f0">Monitor clipboard for URLs</text>
  <rect x="680" y="440" width="50" height="30" rx="15" fill="#10b981"/>
  <circle cx="715" cy="455" r="12" fill="#fff"/>
</svg>