<svg xmlns="http://www.w3.org/2000/svg" viewBox="0 0 800 500">
  <defs>
    <linearGradient id="bgGrad" x1="0%" y1="0%" x2="100%" y2="100%">
      <stop offset="0%" style="stop-color:#f8fafc"/>
      <stop offset="100%" style="stop-color:#e2e8f0"/>
    </linearGradient>
  </defs>
  <rect width="800" height="500" fill="url(#bgGrad)"/>
  <rect x="40" y="30" width="720" height="44" rx="8" fill="#fff" stroke="#e2e8f0" stroke-width="1"/>
  <circle cx="60" cy="52" r="8" fill="#ef4444"/>
  <circle cx="84" cy="52" r="8" fill="#f59e0b"/>
  <circle cx="108" cy="52" r="8" fill="#10b981"/>
  <text x="400" y="56" font-family="system-ui" font-size="14" fill="#64748b" text-anchor="middle">Klat Draw - Vector Graphics</text>
  <rect x="40" y="90" width="720" height="40" rx="8" fill="#fff" stroke="#e2e8f0" stroke-width="1"/>
  <text x="70" y="115" font-family="system-ui" font-size="12" fill="#334155" font-weight="600">File  Edit  View  Insert  Format  Tools  Window  Help</text>
  <rect x="40" y="145" width="720" height="40" rx="8" fill="#fff" stroke="#e2e8f0" stroke-width="1"/>
  <rect x="50" y="150" width="40" height="30" rx="4" fill="transparent" stroke="#cbd5e1" stroke-width="1"/>
  <text x="70" y="170" font-family="system-ui" font-size="16" fill="#334155" text-anchor="middle" dominant-baseline="middle">🔲</text>
  <rect x="100" y="150" width="40" height="30" rx="4" fill="transparent" stroke="#cbd5e1" stroke-width="1"/>
  <text x="120" y="170" font-family="system-ui" font-size="16" fill="#334155" text-anchor="middle" dominant-baseline="middle">⭘</text>
  <rect x="150" y="150" width="40" height="30" rx="4" fill="transparent" stroke="#cbd5e1" stroke-width="1"/>
  <text x="170" y="170" font-family="system-ui" font-size="16" fill="#334155" text-anchor="middle" dominant-baseline="middle">➤</text>
  <rect x="200" y="150" width="40" height="30" rx="4" fill="transparent" stroke="#cbd5e1" stroke-width="1"/>
  <text x="220" y="170" font-family="system-ui" font-size="16" fill="#334155" text-anchor="middle" dominant-baseline="middle">✏</text>
  <rect x="250" y="150" width="80" height="30" rx="4" fill="transparent" stroke="#cbd5e1" stroke-width="1"/>
  <text x="290" y="170" font-family="system-ui" font-size="12" fill="#334155" text-anchor="middle" dominant-baseline="middle">🔗 Connect</text>
  <rect x="340" y="150" width="80" height="30" rx="4" fill="transparent" stroke="#cbd5e1" stroke-width="1"/>
  <text x="380" y="170" font-family="system-ui" font-size="12" fill="#334155" text-anchor="middle" dominant-baseline="middle">📝 Text</text>
  <rect x="430" y="150" width="60" height="30" rx="4" fill="#fff" stroke="#cbd5e1" stroke-width="1"/>
  <text x="460" y="170" font-family="system-ui" font-size="12" fill="#64748b" text-anchor="middle" dominant-baseline="middle">🔍 Search</text>
  <rect x="40" y="200" width="200" height="270" rx="12" fill="#fff" stroke="#e2e8f0" stroke-width="1"/>
  <text x="140" y="225" font-family="system-ui" font-size="13" fill="#334155" text-anchor="middle" font-weight="600">Shapes & Tools</text>
  <rect x="50" y="240" width="180" height="45" rx="6" fill="#dbeafe" stroke="#3b82f6" stroke-width="1"/>
  <text x="140" y="268" font-family="system-ui" font-size="12" fill="#1e40af" text-anchor="middle">🔲 Rectangles</text>
  <rect x="50" y="295" width="180" height="45" rx="6" fill="#fff" stroke="#e2e8f0" stroke-width="1"/>
  <text x="140" y="323" font-family="system-ui" font-size="12" fill="#334155" text-anchor="middle">⭘ Ellipses</text>
  <rect x="50" y="350" width="180" height="45" rx="6" fill="#fff" stroke="#e2e8f0" stroke-width="1"/>
  <text x="140" y="378" font-family="system-ui" font-size="12" fill="#334155" text-anchor="middle">⬡ Polygons</text>
  <rect x="50" y="405" width="180" height="45" rx="6" fill="#fff" stroke="#e2e8f0" stroke-width="1"/>
  <text x="140" y="433" font-family="system-ui" font-size="12" fill="#334155" text-anchor="middle">📐 Lines & Arrows</text>
  <rect x="260" y="200" width="500" height="270" rx="12" fill="#fff" stroke="#e2e8f0" stroke-width="1"/>
  <rect x="280" y="220" width="460" height="230" rx="8" fill="#f8fafc" stroke="#e2e8f0" stroke-width="1"/>
  <rect x="300" y="240" width="120" height="80" rx="8" fill="#3b82f6" stroke="#1d4ed8" stroke-width="2"/>
  <text x="360" y="285" font-family="system-ui" font-size="14" fill="#fff" text-anchor="middle" dominant-baseline="middle">Process</text>
  <rect x="450" y="240" width="120" height="80" rx="8" fill="#10b981" stroke="#047857" stroke-width="2"/>
  <text x="510" y="285" font-family="system-ui" font-size="14" fill="#fff" text-anchor="middle" dominant-baseline="middle">Decision</text>
  <rect x="600" y="240" width="120" height="80" rx="40" fill="#f59e0b" stroke="#b45309" stroke-width="2"/>
  <text x="660" y="285" font-family="system-ui" font-size="14" fill="#fff" text-anchor="middle" dominant-baseline="middle">Start/End</text>
  <line x1="420" y1="280" x2="450" y2="280" stroke="#64748b" stroke-width="2" marker-end="url(#arrow)"/>
  <line x1="570" y1="280" x2="600" y2="280" stroke="#64748b" stroke-width="2" marker-end="url(#arrow)"/>
  <rect x="380" y="350" width="200" height="60" rx="8" fill="#6366f1" stroke="#3730a3" stroke-width="2"/>
  <text x="480" y="385" font-family="system-ui" font-size="14" fill="#fff" text-anchor="middle" dominant-baseline="middle">Input/Output</text>
  <rect x="260" y="240" width="120" height="80" rx="8" fill="#ec4899" stroke="#9d174d" stroke-width="2"/>
  <text x="320" y="285" font-family="system-ui" font-size="12" fill="#fff" text-anchor="middle" dominant-baseline="middle">Document</text>
  <rect x="260" y="400" width="500" height="60" rx="8" fill="#f1f5f9" stroke="#e2e8f0" stroke-width="1"/>
  <text x="510" y="435" font-family="system-ui" font-size="12" fill="#64748b" text-anchor="middle">Grid: 20px  Snap: On  Guides: 4  Zoom: 125%</text>
  <rect x="40" y="480" width="720" height="30" rx="6" fill="#f1f5f9" stroke="#e2e8f0" stroke-width="1"/>
  <text x="100" y="500" font-family="system-ui" font-size="12" fill="#64748b">Layers  Pages  Styles  Gallery  3D Effects</text>
  <text x="700" y="500" font-family="system-ui" font-size="12" fill="#64748b" text-anchor="end">SVG  PDF  PNG  EMF  Export</text>
</svg>