<svg xmlns="http://www.w3.org/2000/svg" viewBox="0 0 800 500">
  <defs>
    <linearGradient id="bgGrad" x1="0%" y1="0%" x2="100%" y2="100%">
      <stop offset="0%" style="stop-color:#f8fafc"/>
      <stop offset="100%" style="stop-color:#e2e8f0"/>
    </linearGradient>
  </defs>
  <rect width="800" height="500" fill="url(#bgGrad)"/>
  <rect x="40" y="30" width="720" height="44" rx="8" fill="#fff" stroke="#e2e8f0" stroke-width="1"/>
  <circle cx="60" cy="52" r="8" fill="#ef4444"/>
  <circle cx="84" cy="52" r="8" fill="#f59e0b"/>
  <circle cx="108" cy="52" r="8" fill="#10b981"/>
  <text x="400" y="56" font-family="system-ui" font-size="14" fill="#64748b" text-anchor="middle">Klat Writer - Document Editor</text>
  <rect x="40" y="90" width="720" height="40" rx="8" fill="#fff" stroke="#e2e8f0" stroke-width="1"/>
  <text x="70" y="115" font-family="system-ui" font-size="12" fill="#334155" font-weight="600">File  Edit  View  Insert  Format  Tools  Table  Window  Help</text>
  <rect x="40" y="145" width="720" height="40" rx="8" fill="#fff" stroke="#e2e8f0" stroke-width="1"/>
  <rect x="50" y="150" width="40" height="30" rx="4" fill="#f59e0b"/>
  <text x="70" y="170" font-family="system-ui" font-size="14" fill="#fff" text-anchor="middle" dominant-baseline="middle">B</text>
  <rect x="100" y="150" width="40" height="30" rx="4" fill="transparent" stroke="#cbd5e1" stroke-width="1"/>
  <text x="120" y="170" font-family="system-ui" font-size="14" fill="#334155" text-anchor="middle" dominant-baseline="middle" font-style="italic">I</text>
  <rect x="150" y="150" width="40" height="30" rx="4" fill="transparent" stroke="#cbd5e1" stroke-width="1"/>
  <text x="170" y="170" font-family="system-ui" font-size="14" fill="#334155" text-anchor="middle" dominant-baseline="middle" text-decoration="underline">U</text>
  <rect x="200" y="150" width="80" height="30" rx="4" fill="#fff" stroke="#cbd5e1" stroke-width="1"/>
  <text x="240" y="170" font-family="system-ui" font-size="12" fill="#334155" text-anchor="middle" dominant-baseline="middle">Arial</text>
  <rect x="290" y="150" width="50" height="30" rx="4" fill="#fff" stroke="#cbd5e1" stroke-width="1"/>
  <text x="315" y="170" font-family="system-ui" font-size="12" fill="#334155" text-anchor="middle" dominant-baseline="middle">12</text>
  <rect x="360" y="150" width="100" height="30" rx="4" fill="#f59e0b" stroke="none"/>
  <text x="410" y="170" font-family="system-ui" font-size="12" fill="#fff" text-anchor="middle" dominant-baseline="middle">Paste</text>
  <rect x="470" y="150" width="140" height="30" rx="4" fill="#fff" stroke="#cbd5e1" stroke-width="1"/>
  <text x="480" y="170" font-family="system-ui" font-size="12" fill="#64748b" dominant-baseline="middle">🔍  Search: Styles, Actions...</text>
  <rect x="40" y="200" width="260" height="260" rx="12" fill="#fff" stroke="#e2e8f0" stroke-width="1"/>
  <text x="170" y="225" font-family="system-ui" font-size="13" fill="#334155" text-anchor="middle" font-weight="600">Styles</text>
  <rect x="50" y="240" width="240" height="45" rx="6" fill="#fef3c7" stroke="#f59e0b" stroke-width="1"/>
  <text x="170" y="268" font-family="system-ui" font-size="12" fill="#92400e" text-anchor="middle" font-weight="600">Heading 1</text>
  <rect x="50" y="295" width="240" height="45" rx="6" fill="#fff" stroke="#e2e8f0" stroke-width="1"/>
  <text x="170" y="323" font-family="system-ui" font-size="12" fill="#334155" text-anchor="middle">Heading 2</text>
  <rect x="50" y="350" width="240" height="45" rx="6" fill="#fff" stroke="#e2e8f0" stroke-width="1"/>
  <text x="170" y="378" font-family="system-ui" font-size="12" fill="#334155" text-anchor="middle">Normal Text</text>
  <rect x="50" y="405" width="240" height="45" rx="6" fill="#fff" stroke="#e2e8f0" stroke-width="1"/>
  <text x="170" y="433" font-family="system-ui" font-size="12" fill="#334155" text-anchor="middle">Title</text>
  <rect x="320" y="200" width="440" height="260" rx="12" fill="#fff" stroke="#e2e8f0" stroke-width="1"/>
  <text x="540" y="225" font-family="system-ui" font-size="20" fill="#1e293b" text-anchor="middle" font-weight="700">Welcome to Klat Writer</text>
  <text x="540" y="260" font-family="system-ui" font-size="14" fill="#64748b" text-anchor="middle">Create professional documents with ease. Full compatibility with .docx, .doc, and .odt formats.</text>
  <text x="540" y="300" font-family="system-ui" font-size="14" fill="#64748b" text-anchor="middle">• Advanced formatting: styles, themes, columns, sections</text>
  <text x="540" y="325" font-family="system-ui" font-size="14" fill="#64748b" text-anchor="middle">• Mail merge for personalized letters and emails</text>
  <text x="540" y="350" font-family="system-ui" font-size="14" fill="#64748b" text-anchor="middle">• Track changes, comments, and collaboration tools</text>
  <text x="540" y="375" font-family="system-ui" font-size="14" fill="#64748b" text-anchor="middle">• Table of contents, indexes, cross-references</text>
  <text x="540" y="400" font-family="system-ui" font-size="14" fill="#64748b" text-anchor="middle">• Export to PDF/A, EPUB, HTML, and more</text>
  <rect x="40" y="480" width="720" height="30" rx="6" fill="#f1f5f9" stroke="#e2e8f0" stroke-width="1"/>
  <text x="100" y="500" font-family="system-ui" font-size="12" fill="#64748b">Page 1 of 3   Words: 1,247   English (US)</text>
  <text x="700" y="500" font-family="system-ui" font-size="12" fill="#64748b" text-anchor="end">100%  🔍</text>
</svg>