<svg xmlns="http://www.w3.org/2000/svg" viewBox="0 0 800 500">
  <defs>
    <linearGradient id="bgGrad" x1="0%" y1="0%" x2="100%" y2="100%">
      <stop offset="0%" style="stop-color:#f8fafc"/>
      <stop offset="100%" style="stop-color:#e2e8f0"/>
    </linearGradient>
  </defs>
  <rect width="800" height="500" fill="url(#bgGrad)"/>
  <rect x="40" y="30" width="720" height="44" rx="8" fill="#fff" stroke="#e2e8f0" stroke-width="1"/>
  <circle cx="60" cy="52" r="8" fill="#ef4444"/>
  <circle cx="84" cy="52" r="8" fill="#f59e0b"/>
  <circle cx="108" cy="52" r="8" fill="#10b981"/>
  <text x="400" y="56" font-family="system-ui" font-size="14" fill="#64748b" text-anchor="middle">Klat Impress - Presentation</text>
  <rect x="40" y="90" width="720" height="40" rx="8" fill="#fff" stroke="#e2e8f0" stroke-width="1"/>
  <text x="70" y="115" font-family="system-ui" font-size="12" fill="#334155" font-weight="600">File  Edit  View  Insert  Format  Slide  Slide Show  Tools  Window  Help</text>
  <rect x="40" y="145" width="720" height="40" rx="8" fill="#fff" stroke="#e2e8f0" stroke-width="1"/>
  <rect x="50" y="150" width="40" height="30" rx="4" fill="#3b82f6"/>
  <text x="70" y="170" font-family="system-ui" font-size="14" fill="#fff" text-anchor="middle" dominant-baseline="middle">+</text>
  <rect x="100" y="150" width="40" height="30" rx="4" fill="transparent" stroke="#cbd5e1" stroke-width="1"/>
  <text x="120" y="170" font-family="system-ui" font-size="14" fill="#334155" text-anchor="middle" dominant-baseline="middle">⬜</text>
  <rect x="150" y="150" width="40" height="30" rx="4" fill="transparent" stroke="#cbd5e1" stroke-width="1"/>
  <text x="170" y="170" font-family="system-ui" font-size="14" fill="#334155" text-anchor="middle" dominant-baseline="middle">📝</text>
  <rect x="200" y="150" width="40" height="30" rx="4" fill="transparent" stroke="#cbd5e1" stroke-width="1"/>
  <text x="220" y="170" font-family="system-ui" font-size="14" fill="#334155" text-anchor="middle" dominant-baseline="middle">🖼</text>
  <rect x="250" y="150" width="40" height="30" rx="4" fill="transparent" stroke="#cbd5e1" stroke-width="1"/>
  <text x="270" y="170" font-family="system-ui" font-size="14" fill="#334155" text-anchor="middle" dominant-baseline="middle">📊</text>
  <rect x="300" y="150" width="40" height="30" rx="4" fill="transparent" stroke="#cbd5e1" stroke-width="1"/>
  <text x="320" y="170" font-family="system-ui" font-size="14" fill="#334155" text-anchor="middle" dominant-baseline="middle">🎬</text>
  <rect x="350" y="150" width="40" height="30" rx="4" fill="transparent" stroke="#cbd5e1" stroke-width="1"/>
  <text x="370" y="170" font-family="system-ui" font-size="14" fill="#334155" text-anchor="middle" dominant-baseline="middle">🔗</text>
  <rect x="400" y="150" width="180" height="30" rx="4" fill="#fff" stroke="#cbd5e1" stroke-width="1"/>
  <text x="410" y="170" font-family="system-ui" font-size="12" fill="#64748b" dominant-baseline="middle">🔍  Search: Shapes, Animations...</text>
  <rect x="40" y="200" width="200" height="260" rx="12" fill="#fff" stroke="#e2e8f0" stroke-width="1"/>
  <text x="140" y="225" font-family="system-ui" font-size="13" fill="#334155" text-anchor="middle" font-weight="600">Slides</text>
  <rect x="50" y="240" width="180" height="60" rx="6" fill="#dbeafe" stroke="#3b82f6" stroke-width="1"/>
  <text x="140" y="275" font-family="system-ui" font-size="12" fill="#1e40af" text-anchor="middle" font-weight="600">Slide 1: Title</text>
  <text x="140" y="290" font-family="system-ui" font-size="10" fill="#3b82f6" text-anchor="middle">Current • Layout: Title</text>
  <rect x="50" y="310" width="180" height="60" rx="6" fill="#fff" stroke="#e2e8f0" stroke-width="1"/>
  <text x="140" y="345" font-family="system-ui" font-size="12" fill="#334155" text-anchor="middle">Slide 2: Content</text>
  <text x="140" y="360" font-family="system-ui" font-size="10" fill="#64748b" text-anchor="middle">Layout: Two Content</text>
  <rect x="50" y="380" width="180" height="60" rx="6" fill="#fff" stroke="#e2e8f0" stroke-width="1"/>
  <text x="140" y="415" font-family="system-ui" font-size="12" fill="#334155" text-anchor="middle">Slide 3: Chart</text>
  <text x="140" y="430" font-family="system-ui" font-size="10" fill="#64748b" text-anchor="middle">Layout: Title + Chart</text>
  <rect x="260" y="200" width="500" height="260" rx="12" fill="#fff" stroke="#e2e8f0" stroke-width="1"/>
  <rect x="280" y="220" width="460" height="220" rx="8" fill="#f8fafc" stroke="#e2e8f0" stroke-width="1"/>
  <rect x="320" y="250" width="180" height="60" rx="8" fill="#3b82f6" stroke="#1d4ed8" stroke-width="2"/>
  <text x="410" y="285" font-family="system-ui" font-size="18" fill="#fff" text-anchor="middle" dominant-baseline="middle" font-weight="700">Klat Impress</text>
  <rect x="530" y="250" width="150" height="60" rx="8" fill="#10b981" stroke="#047857" stroke-width="2"/>
  <text x="605" y="285" font-family="system-ui" font-size="14" fill="#fff" text-anchor="middle" dominant-baseline="middle">Professional</text>
  <rect x="320" y="330" width="300" height="40" rx="6" fill="#fff" stroke="#e2e8f0" stroke-width="1"/>
  <text x="470" y="355" font-family="system-ui" font-size="14" fill="#1e293b" text-anchor="middle">Create stunning presentations with ease</text>
  <rect x="400" y="390" width="120" height="40" rx="6" fill="#f59e0b" stroke="#b45309" stroke-width="2"/>
  <text x="460" y="415" font-family="system-ui" font-size="13" fill="#fff" text-anchor="middle" dominant-baseline="middle">Animations</text>
  <rect x="540" y="390" width="120" height="40" rx="6" fill="#3b82f6" stroke="#1d4ed8" stroke-width="2"/>
  <text x="600" y="415" font-family="system-ui" font-size="13" fill="#fff" text-anchor="middle" dominant-baseline="middle">Transitions</text>
  <rect x="40" y="480" width="720" height="30" rx="6" fill="#f1f5f9" stroke="#e2e8f0" stroke-width="1"/>
  <text x="100" y="500" font-family="system-ui" font-size="12" fill="#64748b">Slide 1  Slide 2  Slide 3  +</text>
  <text x="700" y="500" font-family="system-ui" font-size="12" fill="#64748b" text-anchor="end">100%  🔍  ▶️ Present</text>
</svg>