<svg xmlns="http://www.w3.org/2000/svg" viewBox="0 0 800 500">
  <defs>
    <linearGradient id="bgGrad" x1="0%" y1="0%" x2="100%" y2="100%">
      <stop offset="0%" style="stop-color:#0f172a"/>
      <stop offset="100%" style="stop-color:#1e1b4b"/>
    </linearGradient>
    <linearGradient id="accentGrad" x1="0%" y1="0%" x2="100%" y2="0%">
      <stop offset="0%" style="stop-color:#ef4444"/>
      <stop offset="100%" style="stop-color:#ec4899"/>
    </linearGradient>
  </defs>
  <rect width="800" height="500" fill="url(#bgGrad)"/>
  <rect x="40" y="30" width="720" height="44" rx="8" fill="#1e293b" stroke="#334155" stroke-width="1"/>
  <circle cx="60" cy="52" r="8" fill="#ef4444"/>
  <circle cx="84" cy="52" r="8" fill="#f59e0b"/>
  <circle cx="108" cy="52" r="8" fill="#10b981"/>
  <text x="400" y="56" font-family="system-ui" font-size="14" fill="#64748b" text-anchor="middle">Klat Tube - Settings</text>
  <rect x="40" y="90" width="720" height="380" rx="12" fill="#1e293b" stroke="#334155" stroke-width="1"/>
  <rect x="60" y="110" width="200" height="340" rx="12" fill="#0f172a"/>
  <text x="160" y="135" font-family="system-ui" font-size="14" fill="#fff" text-anchor="middle" font-weight="600">Settings</text>
  <rect x="70" y="145" width="180" height="45" rx="8" fill="#ef4444"/>
  <text x="160" y="172" font-family="system-ui" font-size="13" fill="#fff" text-anchor="middle" dominant-baseline="middle">🌐 General</text>
  <rect x="70" y="200" width="180" height="45" rx="8" fill="transparent"/>
  <text x="160" y="227" font-family="system-ui" font-size="13" fill="#94a3b8" text-anchor="middle">🎬 Playback</text>
  <rect x="70" y="255" width="180" height="45" rx="8" fill="transparent"/>
  <text x="160" y="282" font-family="system-ui" font-size="13" fill="#94a3b8" text-anchor="middle">📥 Downloads</text>
  <rect x="70" y="310" width="180" height="45" rx="8" fill="transparent"/>
  <text x="160" y="337" font-family="system-ui" font-size="13" fill="#94a3b8" text-anchor="middle">🔒 Privacy</text>
  <rect x="70" y="365" width="180" height="45" rx="8" fill="transparent"/>
  <text x="160" y="392" font-family="system-ui" font-size="13" fill="#94a3b8" text-anchor="middle">🎨 Appearance</text>
  <rect x="70" y="420" width="180" height="45" rx="8" fill="transparent"/>
  <text x="160" y="447" font-family="system-ui" font-size="13" fill="#94a3b8" text-anchor="middle">⌨️ Shortcuts</text>
  <rect x="280" y="110" width="460" height="340" rx="12" fill="#0f172a"/>
  <text x="510" y="135" font-family="system-ui" font-size="16" fill="#fff" text-anchor="middle" font-weight="600">General Settings</text>
  <rect x="300" y="155" width="420" height="60" rx="8" fill="#1e293b" stroke="#334155" stroke-width="1"/>
  <text x="320" y="185" font-family="system-ui" font-size="14" fill="#e2e8f0">Default Quality</text>
  <rect x="480" y="165" width="200" height="40" rx="6" fill="#334155" stroke="#ef4444" stroke-width="1"/>
  <text x="580" y="190" font-family="system-ui" font-size="13" fill="#fff" text-anchor="middle" dominant-baseline="middle">1080p60</text>
  <rect x="300" y="225" width="420" height="60" rx="8" fill="#1e293b" stroke="#334155" stroke-width="1"/>
  <text x="320" y="255" font-family="system-ui" font-size="14" fill="#e2e8f0">Language</text>
  <rect x="480" y="235" width="200" height="40" rx="6" fill="#334155" stroke="#334155" stroke-width="1"/>
  <text x="580" y="260" font-family="system-ui" font-size="13" fill="#e2e8f0" text-anchor="middle" dominant-baseline="middle">English (US)</text>
  <rect x="300" y="295" width="420" height="60" rx="8" fill="#1e293b" stroke="#334155" stroke-width="1"/>
  <text x="320" y="325" font-family="system-ui" font-size="14" fill="#e2e8f0">Auto-play next video</text>
  <rect x="680" y="305" width="50" height="30" rx="15" fill="#ef4444"/>
  <circle cx="715" cy="320" r="12" fill="#fff"/>
  <rect x="300" y="365" width="420" height="60" rx="8" fill="#1e293b" stroke="#334155" stroke-width="1"/>
  <text x="320" y="395" font-family="system-ui" font-size="14" fill="#e2e8f0">Show SponsorBlock segments</text>
  <rect x="680" y="375" width="50" height="30" rx="15" fill="#ef4444"/>
  <circle cx="715" cy="390" r="12" fill="#fff"/>
  <rect x="300" y="435" width="420" height="60" rx="8" fill="#1e293b" stroke="#334155" stroke-width="1"/>
  <text x="320" y="465" font-family="system-ui" font-size="14" fill="#e2e8f0">Enable background playback</text>
  <rect x="680" y="445" width="50" height="30" rx="15" fill="#ef4444"/>
  <circle cx="715" cy="460" r="12" fill="#fff"/>
</svg>