<svg xmlns="http://www.w3.org/2000/svg" viewBox="0 0 800 500">
  <defs>
    <linearGradient id="bgGrad" x1="0%" y1="0%" x2="100%" y2="100%">
      <stop offset="0%" style="stop-color:#0f172a"/>
      <stop offset="100%" style="stop-color:#1e1b4b"/>
    </linearGradient>
  </defs>
  <rect width="800" height="500" fill="url(#bgGrad)"/>
  <rect x="40" y="30" width="720" height="44" rx="8" fill="#1e293b" stroke="#334155" stroke-width="1"/>
  <circle cx="60" cy="52" r="8" fill="#ef4444"/>
  <circle cx="84" cy="52" r="8" fill="#f59e0b"/>
  <circle cx="108" cy="52" r="8" fill="#10b981"/>
  <text x="400" y="56" font-family="system-ui" font-size="14" fill="#64748b" text-anchor="middle">Klat AI - Chat Interface</text>
  <rect x="40" y="90" width="720" height="380" rx="12" fill="#1e293b" stroke="#334155" stroke-width="1"/>
  <rect x="60" y="110" width="680" height="340" rx="12" fill="#0f172a"/>
  <rect x="70" y="120" width="660" height="100" rx="12" fill="#1e293b" stroke="#334155" stroke-width="1"/>
  <circle cx="100" cy="170" r="28" fill="#5c6bc0"/>
  <text x="100" y="175" font-family="system-ui" font-size="20" fill="#fff" text-anchor="middle" dominant-baseline="middle">🤖</text>
  <text x="150" y="155" font-family="system-ui" font-size="14" fill="#e2e8f0" font-weight="600">Klat AI</text>
  <text x="150" y="175" font-family="system-ui" font-size="12" fill="#94a3b8">Using Llama 3.1 70B (Local)</text>
  <text x="150" y="195" font-family="system-ui" font-size="11" fill="#64748b">How can I help you today?</text>
  <rect x="70" y="240" width="660" height="100" rx="12" fill="#1e293b" stroke="#334155" stroke-width="1"/>
  <circle cx="100" cy="290" r="28" fill="#1e293b" stroke="#64748b" stroke-width="1"/>
  <text x="100" y="295" font-family="system-ui" font-size="20" fill="#fff" text-anchor="middle" dominant-baseline="middle">👤</text>
  <text x="150" y="275" font-family="system-ui" font-size="14" fill="#e2e8f0" font-weight="600">You</text>
  <text x="150" y="295" font-family="system-ui" font-size="13" fill="#e2e8f0">Explain how async/await works in JavaScript with a practical example</text>
  <text x="150" y="315" font-family="system-ui" font-size="11" fill="#64748b">10:30 AM</text>
  <rect x="70" y="360" width="660" height="100" rx="12" fill="#1e293b" stroke="#334155" stroke-width="1"/>
  <circle cx="100" cy="410" r="28" fill="#5c6bc0"/>
  <text x="100" y="415" font-family="system-ui" font-size="20" fill="#fff" text-anchor="middle" dominant-baseline="middle">🤖</text>
  <text x="150" y="395" font-family="system-ui" font-size="14" fill="#e2e8f0" font-weight="600">Klat AI</text>
  <text x="150" y="415" font-family="system-ui" font-size="12" fill="#e2e8f0">Async/await is syntactic sugar over Promises that makes asynchronous code look synchronous...</text>
  <text x="150" y="435" font-family="system-ui" font-size="11" fill="#64748b">10:30 AM</text>
  <rect x="70" y="480" width="660" height="80" rx="12" fill="#1e293b" stroke="#5c6bc0" stroke-width="2"/>
  <rect x="80" y="490" width="500" height="60" rx="20" fill="#0f172a" stroke="#5c6bc0" stroke-width="1"/>
  <text x="100" y="520" font-family="system-ui" font-size="14" fill="#94a3b8" dominant-baseline="middle">Ask anything...</text>
  <rect x="600" y="490" width="120" height="60" rx="20" fill="url(#accentGrad)"/>
  <text x="660" y="520" font-family="system-ui" font-size="14" fill="#fff" text-anchor="middle" dominant-baseline="middle" font-weight="600">Send</text>
</svg>