<svg xmlns="http://www.w3.org/2000/svg" viewBox="0 0 800 500">
  <defs>
    <linearGradient id="bgGrad" x1="0%" y1="0%" x2="100%" y2="100%">
      <stop offset="0%" style="stop-color:#0f172a"/>
      <stop offset="100%" style="stop-color:#1e1b4b"/>
    </linearGradient>
    <linearGradient id="panelGrad" x1="0%" y1="0%" x2="0%" y2="100%">
      <stop offset="0%" style="stop-color:rgba(20,20,30,0.95)"/>
      <stop offset="100%" style="stop-color:rgba(30,30,40,0.98)"/>
    </linearGradient>
  </defs>
  <rect width="800" height="500" fill="url(#bgGrad)"/>
  <rect x="40" y="30" width="720" height="44" rx="8" fill="#1e293b" stroke="#334155" stroke-width="1"/>
  <circle cx="60" cy="52" r="8" fill="#ef4444"/>
  <circle cx="84" cy="52" r="8" fill="#f59e0b"/>
  <circle cx="108" cy="52" r="8" fill="#10b981"/>
  <text x="400" y="56" font-family="system-ui" font-size="14" fill="#64748b" text-anchor="middle">Klat OS - Settings</text>
  <rect x="40" y="90" width="720" height="380" rx="12" fill="#000" fill-opacity="0.3" stroke="#fff" stroke-width="1" stroke-opacity="0.1"/>
  <rect x="50" y="100" width="240" height="360" rx="12" fill="url(#panelGrad)" stroke="rgba(255,255,255,0.1)" stroke-width="1"/>
  <text x="170" y="130" font-family="system-ui" font-size="16" fill="#fff" text-anchor="middle" font-weight="600">Categories</text>
  <rect x="70" y="145" width="200" height="45" rx="8" fill="rgba(102,126,234,0.2)" stroke="#667eea" stroke-width="2"/>
  <text x="170" y="172" font-family="system-ui" font-size="13" fill="#fff" text-anchor="middle" font-weight="600">🌐 Network</text>
  <rect x="70" y="200" width="200" height="45" rx="8" fill="rgba(255,255,255,0.05)"/>
  <text x="170" y="227" font-family="system-ui" font-size="13" fill="#e2e8f0" text-anchor="middle">🔊 Sound</text>
  <rect x="70" y="255" width="200" height="45" rx="8" fill="rgba(255,255,255,0.05)"/>
  <text x="170" y="282" font-family="system-ui" font-size="13" fill="#e2e8f0" text-anchor="middle">🖥️ Display</text>
  <rect x="70" y="310" width="200" height="45" rx="8" fill="rgba(255,255,255,0.05)"/>
  <text x="170" y="337" font-family="system-ui" font-size="13" fill="#e2e8f0" text-anchor="middle">⚡ Power</text>
  <rect x="70" y="365" width="200" height="45" rx="8" fill="rgba(255,255,255,0.05)"/>
  <text x="170" y="392" font-family="system-ui" font-size="13" fill="#e2e8f0" text-anchor="middle">⌨️ Keyboard</text>
  <rect x="70" y="420" width="200" height="45" rx="8" fill="rgba(255,255,255,0.05)"/>
  <text x="170" y="447" font-family="system-ui" font-size="13" fill="#e2e8f0" text-anchor="middle">🖱️ Mouse</text>
  <rect x="320" y="100" width="420" height="360" rx="12" fill="url(#panelGrad)" stroke="rgba(255,255,255,0.1)" stroke-width="1"/>
  <text x="530" y="130" font-family="system-ui" font-size="16" fill="#fff" text-anchor="middle" font-weight="600">Network Settings</text>
  <rect x="340" y="145" width="380" height="60" rx="8" fill="rgba(255,255,255,0.05)" stroke="rgba(255,255,255,0.1)" stroke-width="1"/>
  <text x="360" y="175" font-family="system-ui" font-size="14" fill="#e2e8f0">Wi-Fi: KlatOffice_5G</text>
  <text x="360" y="195" font-family="system-ui" font-size="11" fill="#94a3b8">Connected • WPA3 • 866 Mbps</text>
  <rect x="340" y="215" width="380" height="60" rx="8" fill="rgba(255,255,255,0.05)" stroke="rgba(255,255,255,0.1)" stroke-width="1"/>
  <text x="360" y="245" font-family="system-ui" font-size="14" fill="#e2e8f0">VPN: Connected (WireGuard)</text>
  <text x="360" y="265" font-family="system-ui" font-size="11" fill="#94a3b8">Endpoint: vpn.klatasia.com • 10.0.0.1</text>
  <rect x="340" y="285" width="380" height="60" rx="8" fill="rgba(255,255,255,0.05)" stroke="rgba(255,255,255,0.1)" stroke-width="1"/>
  <text x="360" y="315" font-family="system-ui" font-size="14" fill="#e2e8f0">DNS: 1.1.1.1 (Cloudflare)</text>
  <text x="360" y="335" font-family="system-ui" font-size="11" fill="#94a3b8">DNS-over-HTTPS • Encrypted</text>
  <rect x="340" y="355" width="380" height="60" rx="8" fill="rgba(255,255,255,0.05)" stroke="rgba(255,255,255,0.1)" stroke-width="1"/>
  <text x="360" y="385" font-family="system-ui" font-size="14" fill="#e2e8f0">Firewall: Enabled (Strict)</text>
  <text x="360" y="405" font-family="system-ui" font-size="11" fill="#94a3b8">Incoming: Block • Outgoing: Allow • Logs: On</text>
  <rect x="340" y="425" width="380" height="50" rx="8" fill="rgba(16,185,129,0.1)" stroke="#10b981" stroke-width="1"/>
  <text x="530" y="455" font-family="system-ui" font-size="13" fill="#10b981" text-anchor="middle" font-weight="600">🟢 All connections secure • No leaks detected</text>
</svg>