<svg xmlns="http://www.w3.org/2000/svg" viewBox="0 0 800 500">
  <defs>
    <linearGradient id="bgGrad" x1="0%" y1="0%" x2="100%" y2="100%">
      <stop offset="0%" style="stop-color:#f8fafc"/>
      <stop offset="100%" style="stop-color:#e2e8f0"/>
    </linearGradient>
  </defs>
  <rect width="800" height="500" fill="url(#bgGrad)"/>
  <rect x="40" y="30" width="720" height="44" rx="8" fill="#fff" stroke="#e2e8f0" stroke-width="1"/>
  <circle cx="60" cy="52" r="8" fill="#ef4444"/>
  <circle cx="84" cy="52" r="8" fill="#f59e0b"/>
  <circle cx="108" cy="52" r="8" fill="#10b981"/>
  <text x="400" y="56" font-family="system-ui" font-size="14" fill="#64748b" text-anchor="middle">Klat Base - Database</text>
  <rect x="40" y="90" width="720" height="40" rx="8" fill="#fff" stroke="#e2e8f0" stroke-width="1"/>
  <text x="70" y="115" font-family="system-ui" font-size="12" fill="#334155" font-weight="600">File  Edit  View  Insert  Tools  Window  Help</text>
  <rect x="40" y="145" width="720" height="40" rx="8" fill="#fff" stroke="#e2e8f0" stroke-width="1"/>
  <rect x="50" y="150" width="100" height="30" rx="4" fill="#3b82f6"/>
  <text x="100" y="170" font-family="system-ui" font-size="12" fill="#fff" text-anchor="middle" dominant-baseline="middle">📋 Tables</text>
  <rect x="160" y="150" width="100" height="30" rx="4" fill="transparent" stroke="#cbd5e1" stroke-width="1"/>
  <text x="210" y="170" font-family="system-ui" font-size="12" fill="#334155" text-anchor="middle" dominant-baseline="middle">📝 Forms</text>
  <rect x="270" y="150" width="100" height="30" rx="4" fill="transparent" stroke="#cbd5e1" stroke-width="1"/>
  <text x="320" y="170" font-family="system-ui" font-size="12" fill="#334155" text-anchor="middle" dominant-baseline="middle">📊 Reports</text>
  <rect x="380" y="150" width="100" height="30" rx="4" fill="transparent" stroke="#cbd5e1" stroke-width="1"/>
  <text x="430" y="170" font-family="system-ui" font-size="12" fill="#334155" text-anchor="middle" dominant-baseline="middle">🔍 Queries</text>
  <rect x="490" y="150" width="100" height="30" rx="4" fill="transparent" stroke="#cbd5e1" stroke-width="1"/>
  <text x="540" y="170" font-family="system-ui" font-size="12" fill="#334155" text-anchor="middle" dominant-baseline="middle">💻 SQL</text>
  <rect x="600" y="150" width="140" height="30" rx="4" fill="#fff" stroke="#cbd5e1" stroke-width="1"/>
  <text x="610" y="170" font-family="system-ui" font-size="12" fill="#64748b" dominant-baseline="middle">🔍  Search objects...</text>
  <rect x="40" y="200" width="220" height="270" rx="12" fill="#fff" stroke="#e2e8f0" stroke-width="1"/>
  <text x="150" y="225" font-family="system-ui" font-size="13" fill="#334155" text-anchor="middle" font-weight="600">Database Objects</text>
  <rect x="50" y="240" width="200" height="45" rx="6" fill="#dbeafe" stroke="#3b82f6" stroke-width="1"/>
  <text x="150" y="268" font-family="system-ui" font-size="11" fill="#1e40af" text-anchor="middle">📋 Customers</text>
  <text x="150" y="280" font-family="system-ui" font-size="10" fill="#3b82f6" text-anchor="middle">Table • 1,247 rows</text>
  <rect x="50" y="295" width="200" height="45" rx="6" fill="#fff" stroke="#e2e8f0" stroke-width="1"/>
  <text x="150" y="323" font-family="system-ui" font-size="11" fill="#334155" text-anchor="middle">📋 Orders</text>
  <text x="150" y="335" font-family="system-ui" font-size="10" fill="#64748b" text-anchor="middle">Table • 8,932 rows</text>
  <rect x="50" y="350" width="200" height="45" rx="6" fill="#fff" stroke="#e2e8f0" stroke-width="1"/>
  <text x="150" y="378" font-family="system-ui" font-size="11" fill="#334155" text-anchor="middle">📋 Products</text>
  <text x="150" y="390" font-family="system-ui" font-size="10" fill="#64748b" text-anchor="middle">Table • 456 rows</text>
  <rect x="50" y="405" width="200" height="45" rx="6" fill="#fff" stroke="#e2e8f0" stroke-width="1"/>
  <text x="150" y="433" font-family="system-ui" font-size="11" fill="#334155" text-anchor="middle">📝 Customer Form</text>
  <text x="150" y="445" font-family="system-ui" font-size="10" fill="#64748b" text-anchor="middle">Form • Edit mode</text>
  <rect x="280" y="200" width="480" height="270" rx="12" fill="#fff" stroke="#e2e8f0" stroke-width="1"/>
  <text x="520" y="225" font-family="system-ui" font-size="14" fill="#334155" text-anchor="middle" font-weight="600">Customers Table</text>
  <rect x="300" y="240" width="440" height="200" rx="8" fill="#f8fafc" stroke="#e2e8f0" stroke-width="1"/>
  <text x="320" y="265" font-family="system-ui" font-size="11" fill="#64748b">ID</text>
  <text x="390" y="265" font-family="system-ui" font-size="11" fill="#64748b">Name</text>
  <text x="500" y="265" font-family="system-ui" font-size="11" fill="#64748b">Email</text>
  <text x="610" y="265" font-family="system-ui" font-size="11" fill="#64748b">Phone</text>
  <text x="700" y="265" font-family="system-ui" font-size="11" fill="#64748b">City</text>
  <rect x="300" y="280" width="440" height="30" rx="4" fill="#fff" stroke="#e2e8f0" stroke-width="1"/>
  <text x="320" y="300" font-family="system-ui" font-size="12" fill="#1e293b">1</text>
  <text x="390" y="300" font-family="system-ui" font-size="12" fill="#1e293b">John Smith</text>
  <text x="500" y="300" font-family="system-ui" font-size="12" fill="#1e293b">john@email.com</text>
  <text x="610" y="300" font-family="system-ui" font-size="12" fill="#1e293b">+1-555-0123</text>
  <text x="700" y="300" font-family="system-ui" font-size="12" fill="#1e293b">New York</text>
  <rect x="300" y="310" width="440" height="30" rx="4" fill="#f8fafc" stroke="#e2e8f0" stroke-width="1"/>
  <text x="320" y="330" font-family="system-ui" font-size="12" fill="#1e293b">2</text>
  <text x="390" y="330" font-family="system-ui" font-size="12" fill="#1e293b">Jane Doe</text>
  <text x="500" y="330" font-family="system-ui" font-size="12" fill="#1e293b">jane@company.org</text>
  <text x="610" y="330" font-family="system-ui" font-size="12" fill="#1e293b">+1-555-0456</text>
  <text x="700" y="330" font-family="system-ui" font-size="12" fill="#1e293b">San Francisco</text>
  <rect x="300" y="340" width="440" height="30" rx="4" fill="#fff" stroke="#e2e8f0" stroke-width="1"/>
  <text x="320" y="360" font-family="system-ui" font-size="12" fill="#1e293b">3</text>
  <text x="390" y="360" font-family="system-ui" font-size="12" fill="#1e293b">Bob Wilson</text>
  <text x="500" y="360" font-family="system-ui" font-size="12" fill="#1e293b">bob@startup.io</text>
  <text x="610" y="360" font-family="system-ui" font-size="12" fill="#1e293b">+1-555-0789</text>
  <text x="700" y="360" font-family="system-ui" font-size="12" fill="#1e293b">Austin</text>
  <rect x="300" y="370" width="440" height="30" rx="4" fill="#f8fafc" stroke="#e2e8f0" stroke-width="1"/>
  <text x="320" y="390" font-family="system-ui" font-size="12" fill="#1e293b">4</text>
  <text x="390" y="390" font-family="system-ui" font-size="12" fill="#1e293b">Alice Brown</text>
  <text x="500" y="390" font-family="system-ui" font-size="12" fill="#1e293b">alice@dev.co</text>
  <text x="610" y="390" font-family="system-ui" font-size="12" fill="#1e293b">+1-555-0321</text>
  <text x="700" y="390" font-family="system-ui" font-size="12" fill="#1e293b">Seattle</text>
  <rect x="40" y="480" width="720" height="30" rx="6" fill="#f1f5f9" stroke="#e2e8f0" stroke-width="1"/>
  <text x="100" y="500" font-family="system-ui" font-size="12" fill="#64748b">Tables  Queries  Forms  Reports  Macros  Modules</text>
  <text x="700" y="500" font-family="system-ui" font-size="12" fill="#64748b" text-anchor="end">HSQLDB  🔒 Read-only</text>
</svg>