<svg xmlns="http://www.w3.org/2000/svg" viewBox="0 0 800 500">
  <defs>
    <linearGradient id="bgGrad" x1="0%" y1="0%" x2="100%" y2="100%">
      <stop offset="0%" style="stop-color:#0f172a"/>
      <stop offset="100%" style="stop-color:#1e1b4b"/>
    </linearGradient>
    <linearGradient id="accentGrad" x1="0%" y1="0%" x2="100%" y2="0%">
      <stop offset="0%" style="stop-color:#10b981"/>
      <stop offset="100%" style="stop-color:#06b6d4"/>
    </linearGradient>
  </defs>
  <rect width="800" height="500" fill="url(#bgGrad)"/>
  <rect x="40" y="30" width="720" height="44" rx="8" fill="#1e293b" stroke="#334155" stroke-width="1"/>
  <circle cx="60" cy="52" r="8" fill="#ef4444"/>
  <circle cx="84" cy="52" r="8" fill="#f59e0b"/>
  <circle cx="108" cy="52" r="8" fill="#10b981"/>
  <text x="400" y="56" font-family="system-ui" font-size="14" fill="#64748b" text-anchor="middle">Klat Downloader - Main Window</text>
  <rect x="40" y="90" width="720" height="380" rx="12" fill="#1e293b" stroke="#334155" stroke-width="1"/>
  <rect x="60" y="110" width="680" height="50" rx="8" fill="#1e293b" stroke="#334155" stroke-width="1"/>
  <rect x="70" y="120" width="36" height="30" rx="4" fill="#10b981"/>
  <text x="88" y="140" font-family="system-ui" font-size="14" fill="#fff" text-anchor="middle" dominant-baseline="middle">+</text>
  <rect x="115" y="120" width="36" height="30" rx="4" fill="#3b82f6"/>
  <text x="133" y="140" font-family="system-ui" font-size="14" fill="#fff" text-anchor="middle" dominant-baseline="middle">📋</text>
  <rect x="160" y="120" width="36" height="30" rx="4" fill="transparent" stroke="#94a3b8" stroke-width="1"/>
  <text x="178" y="140" font-family="system-ui" font-size="14" fill="#94a3b8" text-anchor="middle" dominant-baseline="middle">▶</text>
  <rect x="205" y="120" width="36" height="30" rx="4" fill="transparent" stroke="#94a3b8" stroke-width="1"/>
  <text x="223" y="140" font-family="system-ui" font-size="14" fill="#94a3b8" text-anchor="middle" dominant-baseline="middle">⏸</text>
  <rect x="250" y="120" width="36" height="30" rx="4" fill="transparent" stroke="#94a3b8" stroke-width="1"/>
  <text x="268" y="140" font-family="system-ui" font-size="14" fill="#94a3b8" text-anchor="middle" dominant-baseline="middle">⏹</text>
  <rect x="300" y="120" width="1" height="30" fill="#334155"/>
  <rect x="310" y="120" width="36" height="30" rx="4" fill="transparent" stroke="#94a3b8" stroke-width="1"/>
  <text x="328" y="140" font-family="system-ui" font-size="14" fill="#94a3b8" text-anchor="middle" dominant-baseline="middle">📅</text>
  <rect x="355" y="120" width="36" height="30" rx="4" fill="transparent" stroke="#94a3b8" stroke-width="1"/>
  <text x="373" y="140" font-family="system-ui" font-size="14" fill="#94a3b8" text-anchor="middle" dominant-baseline="middle">⚡</text>
  <text x="650" y="140" font-family="system-ui" font-size="12" fill="#10b981" text-anchor="end">3 active • 12 queued • 2.4 MB/s</text>
  <rect x="60" y="180" width="680" height="270" rx="8" fill="#0f172a"/>
  <rect x="70" y="190" width="660" height="70" rx="8" fill="#1e293b" stroke="#10b981" stroke-width="1"/>
  <rect x="85" y="205" width="40" height="40" rx="8" fill="#334155"/>
  <text x="105" y="230" font-family="system-ui" font-size="18" fill="#fff" text-anchor="middle" dominant-baseline="middle">🎬</text>
  <text x="145" y="225" font-family="system-ui" font-size="13" fill="#e2e8f0" font-weight="600">Ubuntu-24.04-desktop-amd64.iso</text>
  <text x="145" y="245" font-family="system-ui" font-size="11" fill="#94a3b8">releases.ubuntu.com/...</text>
  <rect x="280" y="215" width="200" height="20" rx="4" fill="#334155"/>
  <rect x="280" y="215" width="134" height="20" rx="4" fill="#10b981"/>
  <text x="380" y="230" font-family="system-ui" font-size="11" fill="#fff" text-anchor="middle" dominant-baseline="middle">67% • 2.4 MB/s • 3m 12s</text>
  <rect x="500" y="215" width="200" height="20" rx="4" fill="#334155"/>
  <text x="600" y="230" font-family="system-ui" font-size="11" fill="#94a3b8" text-anchor="middle">3.2 GB / 4.8 GB</text>
  <rect x="60" y="270" width="660" height="70" rx="8" fill="#1e293b" stroke="#3b82f6" stroke-width="1"/>
  <rect x="85" y="285" width="40" height="40" rx="8" fill="#334155"/>
  <text x="105" y="310" font-family="system-ui" font-size="18" fill="#fff" text-anchor="middle" dominant-baseline="middle">📦</text>
  <text x="145" y="305" font-family="system-ui" font-size="13" fill="#e2e8f0" font-weight="600">KlatOffice-Setup-x64.msi</text>
  <text x="145" y="325" font-family="system-ui" font-size="11" fill="#94a3b8">github.com/klatasia/...</text>
  <rect x="280" y="295" width="200" height="20" rx="4" fill="#334155"/>
  <rect x="280" y="295" width="46" height="20" rx="4" fill="#3b82f6"/>
  <text x="380" y="310" font-family="system-ui" font-size="11" fill="#fff" text-anchor="middle" dominant-baseline="middle">23% • 1.8 MB/s • 1m 45s</text>
  <rect x="500" y="295" width="200" height="20" rx="4" fill="#334155"/>
  <text x="600" y="310" font-family="system-ui" font-size="11" fill="#94a3b8" text-anchor="middle">72 MB / 312 MB</text>
  <rect x="70" y="350" width="660" height="70" rx="8" fill="#1e293b" stroke="#10b981" stroke-width="1" stroke-dasharray="5,5"/>
  <rect x="85" y="365" width="40" height="40" rx="8" fill="#334155"/>
  <text x="105" y="390" font-family="system-ui" font-size="18" fill="#fff" text-anchor="middle" dominant-baseline="middle">🖼</text>
  <text x="145" y="385" font-family="system-ui" font-size="13" fill="#e2e8f0" font-weight="600">wallpaper-4k-collection.zip</text>
  <text x="145" y="405" font-family="system-ui" font-size="11" fill="#94a3b8">unsplash.com/...</text>
  <rect x="280" y="375" width="200" height="20" rx="4" fill="#10b981"/>
  <text x="380" y="390" font-family="system-ui" font-size="11" fill="#fff" text-anchor="middle" dominant-baseline="middle">100% ✓ Completed</text>
  <rect x="500" y="375" width="200" height="20" rx="4" fill="#334155"/>
  <text x="600" y="390" font-family="system-ui" font-size="11" fill="#94a3b8" text-anchor="middle">145 MB ✓</text>
</svg>