<svg xmlns="http://www.w3.org/2000/svg" viewBox="0 0 800 500">
  <defs>
    <linearGradient id="bgGrad" x1="0%" y1="0%" x2="100%" y2="100%">
      <stop offset="0%" style="stop-color:#0f172a"/>
      <stop offset="100%" style="stop-color:#1e1b4b"/>
    </linearGradient>
  </defs>
  <rect width="800" height="500" fill="url(#bgGrad)"/>
  <rect x="40" y="30" width="720" height="44" rx="8" fill="#1e293b" stroke="#334155" stroke-width="1"/>
  <circle cx="60" cy="52" r="8" fill="#ef4444"/>
  <circle cx="84" cy="52" r="8" fill="#f59e0b"/>
  <circle cx="108" cy="52" r="8" fill="#10b981"/>
  <text x="400" y="56" font-family="system-ui" font-size="14" fill="#64748b" text-anchor="middle">Klat AI - Code Assistant</text>
  <rect x="40" y="90" width="720" height="380" rx="12" fill="#1e293b" stroke="#334155" stroke-width="1"/>
  <rect x="60" y="110" width="680" height="44" rx="8" fill="#0f172a"/>
  <rect x="70" y="116" width="120" height="32" rx="6" fill="#334155"/>
  <text x="130" y="138" font-family="system-ui" font-size="12" fill="#e2e8f0" text-anchor="middle">📁 main.py</text>
  <rect x="200" y="116" width="100" height="32" rx="6" fill="#334155"/>
  <text x="250" y="138" font-family="system-ui" font-size="12" fill="#94a3b8" text-anchor="middle">✨ AI Suggest</text>
  <rect x="310" y="116" width="100" height="32" rx="6" fill="#5c6bc0"/>
  <text x="360" y="138" font-family="system-ui" font-size="12" fill="#fff" text-anchor="middle">🐛 Debug</text>
  <rect x="420" y="116" width="100" height="32" rx="6" fill="#334155"/>
  <text x="470" y="138" font-family="system-ui" font-size="12" fill="#94a3b8" text-anchor="middle">📝 Explain</text>
  <rect x="530" y="116" width="100" height="32" rx="6" fill="#334155"/>
  <text x="580" y="138" font-family="system-ui" font-size="12" fill="#94a3b8" text-anchor="middle">🔧 Refactor</text>
  <rect x="640" y="116" width="100" height="32" rx="6" fill="#334155"/>
  <text x="690" y="138" font-family="system-ui" font-size="12" fill="#94a3b8" text-anchor="middle">🧪 Test</text>
  <rect x="60" y="170" width="680" height="280" rx="8" fill="#0f172a"/>
  <text x="80" y="200" font-family="monospace" font-size="13" fill="#64748b">1</text>
  <text x="110" y="200" font-family="monospace" font-size="13" fill="#e2e8f0">import requests</text>
  <text x="80" y="225" font-family="monospace" font-size="13" fill="#64748b">2</text>
  <text x="110" y="225" font-family="monospace" font-size="13" fill="#e2e8f0">from time import sleep</text>
  <text x="80" y="250" font-family="monospace" font-size="13" fill="#64748b">3</text>
  <text x="110" y="250" font-family="monospace" font-size="13" fill="#e2e8f0">from bs4 import BeautifulSoup</text>
  <text x="80" y="275" font-family="monospace" font-size="13" fill="#64748b">4</text>
  <text x="110" y="275" font-family="monospace" font-size="13" fill="#e2e8f0"></text>
  <text x="80" y="300" font-family="monospace" font-size="13" fill="#64748b">5</text>
  <text x="110" y="300" font-family="monospace" font-size="13" fill="#e2e8f0" fill-opacity="0.5">def fetch_with_retry(url, max_retries=3, backoff=1):</text>
  <text x="80" y="325" font-family="monospace" font-size="13" fill="#64748b">6</text>
  <text x="110" y="325" font-family="monospace" font-size="13" fill="#e2e8f0" fill-opacity="0.5">    for attempt in range(max_retries):</text>
  <text x="80" y="350" font-family="monospace" font-size="13" fill="#64748b">7</text>
  <text x="110" y="350" font-family="monospace" font-size="13" fill="#a5f3fc">        try:</text>
  <text x="80" y="375" font-family="monospace" font-size="13" fill="#64748b">8</text>
  <text x="110" y="375" font-family="monospace" font-size="13" fill="#e2e8f0" fill-opacity="0.5">            response = requests.get(url, timeout=10)</text>
  <text x="80" y="400" font-family="monospace" font-size="13" fill="#64748b">9</text>
  <text x="110" y="400" font-family="monospace" font-size="13" fill="#e2e8f0" fill-opacity="0.5">            response.raise_for_status()</text>
  <text x="80" y="425" font-family="monospace" font-size="13" fill="#64748b">10</text>
  <text x="110" y="425" font-family="monospace" font-size="13" fill="#e2e8f0" fill-opacity="0.5">            return response.json()</text>
  <rect x="550" y="190" width="180" height="240" rx="8" fill="#1e293b" stroke="#5c6bc0" stroke-width="1"/>
  <text x="640" y="215" font-family="system-ui" font-size="12" fill="#5c6bc0" text-anchor="middle" font-weight="600">💡 AI Suggestion</text>
  <text x="640" y="245" font-family="monospace" font-size="11" fill="#a5f3fc" text-anchor="middle"># Add retry logic</text>
  <text x="640" y="265" font-family="monospace" font-size="11" fill="#a5f3fc" text-anchor="middle"># Exponential backoff</text>
  <text x="640" y="285" font-family="monospace" font-size="11" fill="#a5f3fc" text-anchor="middle"># Timeout handling</text>
  <rect x="550" y="320" width="180" height="80" rx="8" fill="#1e293b" stroke="#10b981" stroke-width="1"/>
  <text x="640" y="345" font-family="system-ui" font-size="12" fill="#10b981" text-anchor="middle" font-weight="600">✅ No Errors</text>
  <text x="640" y="370" font-family="system-ui" font-size="11" fill="#94a3b8" text-anchor="middle">Code analysis complete</text>
  <text x="640" y="390" font-family="system-ui" font-size="11" fill="#94a3b8" text-anchor="middle">3 suggestions available</text>
</svg>