<svg xmlns="http://www.w3.org/2000/svg" viewBox="0 0 1280 720" width="1280" height="720">
  <defs>
    <linearGradient id="bg" x1="0%" y1="0%" x2="100%" y2="100%">
      <stop offset="0%" style="stop-color:#1a1a2e"/>
      <stop offset="100%" style="stop-color:#16213e"/>
    </linearGradient>
    <linearGradient id="green" x1="0%" y1="0%" x2="100%" y2="0%">
      <stop offset="0%" style="stop-color:#10b981"/>
      <stop offset="100%" style="stop-color:#34d399"/>
    </linearGradient>
    <linearGradient id="red" x1="0%" y1="0%" x2="100%" y2="0%">
      <stop offset="0%" style="stop-color:#ef4444"/>
      <stop offset="100%" style="stop-color:#f87171"/>
    </linearGradient>
    <linearGradient id="purple" x1="0%" y1="0%" x2="100%" y2="0%">
      <stop offset="0%" style="stop-color:#6c63ff"/>
      <stop offset="100%" style="stop-color:#a8a4ff"/>
    </linearGradient>
  </defs>
  <rect fill="url(#bg)" width="1280" height="720"/>
  
  <!-- Header -->
  <rect x="0" y="0" width="1280" height="48" fill="#0f0f23" opacity="0.95"/>
  <circle cx="24" cy="24" r="5" fill="#ef4444"/>
  <circle cx="38" cy="24" r="5" fill="#f59e0b"/>
  <circle cx="52" cy="24" r="5" fill="#10b981"/>
  <text x="100" y="30" font-family="system-ui" font-size="14" font-weight="bold" fill="#10b981">Klat Downloader</text>
  
  <!-- Toolbar -->
  <rect x="0" y="48" width="1280" height="56" fill="#1a1a2e"/>
  <rect x="20" y="56" width="100" height="36" fill="url(#green)" rx="8"/>
  <text x="70" y="76" text-anchor="middle" font-family="system-ui" font-size="12" font-weight="bold" fill="#fff">➕ Add URL</text>
  <rect x="140" y="56" width="110" height="36" fill="#0f0f23" rx="8" stroke="#333"/>
  <text x="195" y="76" text-anchor="middle" font-family="system-ui" font-size="12" fill="#ccc">🧲 Torrent</text>
  <rect x="270" y="56" width="70" height="36" fill="#0f0f23" rx="8" stroke="#333"/>
  <text x="305" y="76" text-anchor="middle" font-family="system-ui" font-size="12" fill="#ccc">📋 Paste</text>
  <rect x="1070" y="56" width="100" height="36" fill="url(#green)" rx="8"/>
  <text x="1120" y="76" text-anchor="middle" font-family="system-ui" font-size="12" font-weight="bold" fill="#fff">▶ Start All</text>
  <rect x="1180" y="56" width="80" height="36" fill="#0f0f23" rx="8" stroke="#333"/>
  <text x="1220" y="76" text-anchor="middle" font-family="system-ui" font-size="12" fill="#ccc">⏸ Pause</text>
  
  <!-- Download Items -->
  <g font-family="system-ui">
    <!-- Item 1 - Completed Video -->
    <rect x="20" y="130" width="1240" height="100" fill="#0f0f23" rx="10" stroke="url(#green)" stroke-width="2"/>
    <rect x="36" y="142" width="76" height="76" fill="url(#red)" rx="10"/>
    <text x="74" y="186" text-anchor="middle" font-size="26">🎬</text>
    <text x="130" y="155" font-size="14" font-weight="bold" fill="#fff">Klat Browser Setup v2.1.0.msix</text>
    <text x="130" y="178" font-size="11" fill="#888">🌐 github.com/klatasia/releases  |  💾 52.4 MB / 52.4 MB</text>
    <rect x="36" y="198" width="400" height="8" fill="#333" rx="4"/>
    <rect x="36" y="198" width="400" height="8" fill="url(#green)" rx="4"/>
    <text x="1080" y="160" text-anchor="end" font-size="12" fill="#10b981">📊 45.2 MB/s</text>
    <text x="1080" y="180" text-anchor="end" font-size="12" fill="#888">✅ Completed</text>
    <rect x="1100" y="150" width="80" height="28" fill="url(#purple)" rx="6" opacity="0.2"/>
    <text x="1140" y="168" text-anchor="middle" font-size="11" font-weight="bold" fill="#6c63ff">8 threads</text>
    <text x="1240" y="165" text-anchor="end" font-size="20" fill="#10b981">✓</text>
    
    <!-- Item 2 - Downloading YouTube -->
    <rect x="20" y="250" width="1240" height="110" fill="#0f0f23" rx="10" stroke="#6c63ff" stroke-width="2"/>
    <rect x="36" y="262" width="86" height="86" fill="#ef4444" rx="10"/>
    <text x="79" y="316" text-anchor="middle" font-size="30">▶️</text>
    <text x="140" y="280" font-size="14" font-weight="bold" fill="#fff">How Klat Engine Works - Deep Dive [1080p].mp4</text>
    <text x="140" y="302" font-size="11" fill="#888">🌐 youtube.com/watch?v=klatengine  |  💾 245.7 MB / 1.2 GB</text>
    <rect x="36" y="322" width="400" height="8" fill="#333" rx="4"/>
    <rect x="36" y="322" width="80" height="8" fill="#ef4444" rx="4"/>
    <text x="1080" y="280" text-anchor="end" font-size="12" fill="#ef4444">📊 12.8 MB/s</text>
    <text x="1080" y="300" text-anchor="end" font-size="12" fill="#888">⏱ 1m 23s left</text>
    <rect x="1100" y="270" width="80" height="28" fill="#6c63ff" rx="6" opacity="0.2"/>
    <text x="1140" y="288" text-anchor="middle" font-size="11" font-weight="bold" fill="#6c63ff">8 threads</text>
    <text x="1240" y="285" text-anchor="end" font-size="18" fill="#ef4444">⏸</text>
    <text x="1240" y="320" text-anchor="end" font-size="18" fill="#ccc">🗑</text>
    
    <!-- Item 3 - Queued Torrent -->
    <rect x="20" y="380" width="1240" height="100" fill="#0f0f23" rx="10" stroke="#333"/>
    <rect x="36" y="392" width="76" height="76" fill="#f59e0b" rx="10"/>
    <text x="74" y="436" text-anchor="middle" font-size="26">🧲</text>
    <text x="130" y="408" font-size="14" font-weight="bold" fill="#fff">Ubuntu 24.04 LTS Desktop ISO.torrent</text>
    <text x="130" y="430" font-size="11" fill="#888">🌱 124 seeders / 89 leechers  |  💾 4.6 GB</text>
    <rect x="36" y="448" width="400" height="8" fill="#333" rx="4"/>
    <text x="1080" y="420" text-anchor="end" font-size="12" fill="#f59e0b">📊 Waiting...</text>
    <text x="1080" y="440" text-anchor="end" font-size="12" fill="#888">⏳ Queued</text>
    <text x="1240" y="420" text-anchor="end" font-size="18" fill="#f59e0b">▶</text>
    <text x="1240" y="455" text-anchor="end" font-size="18" fill="#ccc">🗑</text>
  </g>
  
  <!-- Status Bar -->
  <rect x="20" y="510" width="1240" height="50" fill="#0f0f23" rx="8" stroke="#222"/>
  <g font-family="system-ui" font-size="12" fill="#888">
    <text x="60" y="538">⬇  Active: 2</text>
    <text x="220" y="538">✅  Completed: 47</text>
    <text x="400" y="538">📊  Total: 58 MB/s</text>
    <rect x="1080" y="520" width="140" height="28" fill="#6c63ff" opacity="0.15" rx="6"/>
    <text x="1150" y="538" text-anchor="middle" font-weight="bold" fill="#6c63ff">⚡ Speed Limit: Off</text>
  </g>
  
  <!-- Bottom features -->
  <text x="640" y="600" text-anchor="middle" font-family="system-ui" font-size="13" font-weight="bold" fill="#1a1a2e">
    🔗 HTTP/HTTPS/FTP  •  🧲 BitTorrent/Magnet  •  📺 HLS/DASH  •  🎬 1000+ Streaming Sites  •  🔒 Virus Scan
  </text>
  <text x="640" y="620" text-anchor="middle" font-family="system-ui" font-size="11" fill="#888">
    Scheduler  •  Bandwidth Limits  •  Browser Integration  •  Resume/Recovery  •  Proxy Support  •  RSS Auto-download
  </text>
  <text x="640" y="690" text-anchor="middle" font-family="system-ui" font-size="11" fill="#999">
    GPL-3.0  •  Free Forever  •  No Ads  •  No Bundles  •  Windows & Linux  •  Portable Version Available
  </text>
</svg>